<mxfile host="app.diagrams.net" modified="2023-12-02T11:35:23.972Z" agent="Mozilla/5.0 (Windows NT 10.0; Win64; x64) AppleWebKit/537.36 (KHTML, like Gecko) Chrome/119.0.0.0 Safari/537.36" etag="gHHuQERRn_B12kqaGlKh" version="22.1.5" type="github">
  <diagram name="Pagina-1" id="BMupMRvCXHpjx_rXA8Mp">
    <mxGraphModel dx="1562" dy="754" grid="1" gridSize="10" guides="1" tooltips="1" connect="1" arrows="1" fold="1" page="1" pageScale="1" pageWidth="3300" pageHeight="2339" math="0" shadow="0">
      <root>
        <mxCell id="0" />
        <mxCell id="1" parent="0" />
        <mxCell id="cDzh0OEQFYnWzeQINuw8-2" value="" style="whiteSpace=wrap;html=1;aspect=fixed;" parent="1" vertex="1">
          <mxGeometry x="90" y="130" width="750" height="750" as="geometry" />
        </mxCell>
        <mxCell id="NaWDhg6aUQIwYj67lBHU-32" value="" style="verticalLabelPosition=bottom;shadow=0;dashed=0;align=center;html=1;verticalAlign=top;strokeWidth=1;shape=mxgraph.mockup.navigation.scrollBar;strokeColor=#999999;barPos=20;fillColor2=#99ddff;strokeColor2=none;direction=north;" parent="1" vertex="1">
          <mxGeometry x="810" y="228" width="20" height="562" as="geometry" />
        </mxCell>
        <mxCell id="NaWDhg6aUQIwYj67lBHU-52" value="Assets" style="childLayout=tableLayout;recursiveResize=0;strokeColor=#666666;fillColor=#f5f5f5;shadow=1;fontStyle=1;fontColor=#333333;" parent="1" vertex="1">
          <mxGeometry x="113" y="526" width="665" height="132" as="geometry" />
        </mxCell>
        <mxCell id="NaWDhg6aUQIwYj67lBHU-79" style="shape=tableRow;horizontal=0;startSize=0;swimlaneHead=0;swimlaneBody=0;top=0;left=0;bottom=0;right=0;dropTarget=0;collapsible=0;recursiveResize=0;expand=0;fontStyle=0;strokeColor=inherit;fillColor=#FFFFFF;" parent="NaWDhg6aUQIwYj67lBHU-52" vertex="1">
          <mxGeometry width="665" height="33" as="geometry" />
        </mxCell>
        <mxCell id="NaWDhg6aUQIwYj67lBHU-80" value="" style="connectable=0;recursiveResize=0;strokeColor=inherit;fillColor=#FFFFFF;align=center;fontStyle=1;fontColor=#FFFFFF;html=1;" parent="NaWDhg6aUQIwYj67lBHU-79" vertex="1">
          <mxGeometry width="126" height="33" as="geometry">
            <mxRectangle width="126" height="33" as="alternateBounds" />
          </mxGeometry>
        </mxCell>
        <mxCell id="NaWDhg6aUQIwYj67lBHU-81" value="&lt;font color=&quot;#000000&quot;&gt;&lt;i&gt;Max acceleration&lt;br&gt;TImeSeries&lt;br&gt;&lt;/i&gt;&lt;/font&gt;" style="connectable=0;recursiveResize=0;strokeColor=inherit;fillColor=#FFFFFF;align=center;fontStyle=0;fontColor=#FFFFFF;html=1;" parent="NaWDhg6aUQIwYj67lBHU-79" vertex="1">
          <mxGeometry x="126" width="99" height="33" as="geometry">
            <mxRectangle width="99" height="33" as="alternateBounds" />
          </mxGeometry>
        </mxCell>
        <mxCell id="RzBpZSi8kTuK9JfsFtR7-38" value="Median acceleration&lt;br&gt;TimeSeries" style="connectable=0;recursiveResize=0;strokeColor=inherit;fillColor=#FFFFFF;align=center;fontStyle=0;fontColor=#330000;html=1;" parent="NaWDhg6aUQIwYj67lBHU-79" vertex="1">
          <mxGeometry x="225" width="120" height="33" as="geometry">
            <mxRectangle width="120" height="33" as="alternateBounds" />
          </mxGeometry>
        </mxCell>
        <mxCell id="RzBpZSi8kTuK9JfsFtR7-42" value="driving&lt;br&gt;Duration" style="connectable=0;recursiveResize=0;strokeColor=inherit;fillColor=#FFFFFF;align=center;fontStyle=0;fontColor=#000000;html=1;" parent="NaWDhg6aUQIwYj67lBHU-79" vertex="1">
          <mxGeometry x="345" width="70" height="33" as="geometry">
            <mxRectangle width="70" height="33" as="alternateBounds" />
          </mxGeometry>
        </mxCell>
        <mxCell id="RzBpZSi8kTuK9JfsFtR7-46" value="pathLength" style="connectable=0;recursiveResize=0;strokeColor=inherit;fillColor=#FFFFFF;align=center;fontStyle=0;fontColor=#330000;html=1;" parent="NaWDhg6aUQIwYj67lBHU-79" vertex="1">
          <mxGeometry x="415" width="70" height="33" as="geometry">
            <mxRectangle width="70" height="33" as="alternateBounds" />
          </mxGeometry>
        </mxCell>
        <mxCell id="RzBpZSi8kTuK9JfsFtR7-54" value="Photos diff" style="connectable=0;recursiveResize=0;strokeColor=inherit;fillColor=#FFFFFF;align=center;fontStyle=0;fontColor=#330000;html=1;" parent="NaWDhg6aUQIwYj67lBHU-79" vertex="1">
          <mxGeometry x="485" width="90" height="33" as="geometry">
            <mxRectangle width="90" height="33" as="alternateBounds" />
          </mxGeometry>
        </mxCell>
        <mxCell id="RzBpZSi8kTuK9JfsFtR7-50" value="rentalProfile" style="connectable=0;recursiveResize=0;strokeColor=inherit;fillColor=#FFFFFF;align=center;fontStyle=0;fontColor=#000000;html=1;" parent="NaWDhg6aUQIwYj67lBHU-79" vertex="1">
          <mxGeometry x="575" width="90" height="33" as="geometry">
            <mxRectangle width="90" height="33" as="alternateBounds" />
          </mxGeometry>
        </mxCell>
        <mxCell id="RzBpZSi8kTuK9JfsFtR7-4" style="shape=tableRow;horizontal=0;startSize=0;swimlaneHead=0;swimlaneBody=0;top=0;left=0;bottom=0;right=0;dropTarget=0;collapsible=0;recursiveResize=0;expand=0;fontStyle=0;strokeColor=inherit;fillColor=#FFFFFF;" parent="NaWDhg6aUQIwYj67lBHU-52" vertex="1">
          <mxGeometry y="33" width="665" height="33" as="geometry" />
        </mxCell>
        <mxCell id="RzBpZSi8kTuK9JfsFtR7-5" value="&lt;font color=&quot;#000000&quot;&gt;Gini index:&lt;/font&gt;" style="connectable=0;recursiveResize=0;strokeColor=inherit;fillColor=#FFFFFF;align=center;fontStyle=1;fontColor=#FFFFFF;html=1;" parent="RzBpZSi8kTuK9JfsFtR7-4" vertex="1">
          <mxGeometry width="126" height="33" as="geometry">
            <mxRectangle width="126" height="33" as="alternateBounds" />
          </mxGeometry>
        </mxCell>
        <mxCell id="RzBpZSi8kTuK9JfsFtR7-6" value="&lt;font color=&quot;#000000&quot;&gt;&lt;i&gt;&amp;lt;value&amp;gt;&lt;/i&gt;&lt;/font&gt;" style="connectable=0;recursiveResize=0;strokeColor=inherit;fillColor=#FFFFFF;align=center;fontStyle=0;fontColor=#FFFFFF;html=1;" parent="RzBpZSi8kTuK9JfsFtR7-4" vertex="1">
          <mxGeometry x="126" width="99" height="33" as="geometry">
            <mxRectangle width="99" height="33" as="alternateBounds" />
          </mxGeometry>
        </mxCell>
        <mxCell id="RzBpZSi8kTuK9JfsFtR7-39" value="&lt;i style=&quot;border-color: var(--border-color); color: rgb(0, 0, 0); font-family: Helvetica; font-size: 12px; font-variant-ligatures: normal; font-variant-caps: normal; font-weight: 400; letter-spacing: normal; orphans: 2; text-align: center; text-indent: 0px; text-transform: none; widows: 2; word-spacing: 0px; -webkit-text-stroke-width: 0px; background-color: rgb(251, 251, 251); text-decoration-thickness: initial; text-decoration-style: initial; text-decoration-color: initial;&quot;&gt;&amp;lt;value&amp;gt;&lt;/i&gt;&lt;br&gt;" style="connectable=0;recursiveResize=0;strokeColor=inherit;fillColor=#FFFFFF;align=center;fontStyle=0;fontColor=#FFFFFF;html=1;" parent="RzBpZSi8kTuK9JfsFtR7-4" vertex="1">
          <mxGeometry x="225" width="120" height="33" as="geometry">
            <mxRectangle width="120" height="33" as="alternateBounds" />
          </mxGeometry>
        </mxCell>
        <mxCell id="RzBpZSi8kTuK9JfsFtR7-43" value="&lt;i style=&quot;border-color: var(--border-color); color: rgb(0, 0, 0);&quot;&gt;&amp;lt;value&amp;gt;&lt;/i&gt;" style="connectable=0;recursiveResize=0;strokeColor=inherit;fillColor=#FFFFFF;align=center;fontStyle=0;fontColor=#FFFFFF;html=1;" parent="RzBpZSi8kTuK9JfsFtR7-4" vertex="1">
          <mxGeometry x="345" width="70" height="33" as="geometry">
            <mxRectangle width="70" height="33" as="alternateBounds" />
          </mxGeometry>
        </mxCell>
        <mxCell id="RzBpZSi8kTuK9JfsFtR7-47" value="&lt;i style=&quot;border-color: var(--border-color); color: rgb(0, 0, 0);&quot;&gt;&amp;lt;value&amp;gt;&lt;/i&gt;" style="connectable=0;recursiveResize=0;strokeColor=inherit;fillColor=#FFFFFF;align=center;fontStyle=0;fontColor=#FFFFFF;html=1;" parent="RzBpZSi8kTuK9JfsFtR7-4" vertex="1">
          <mxGeometry x="415" width="70" height="33" as="geometry">
            <mxRectangle width="70" height="33" as="alternateBounds" />
          </mxGeometry>
        </mxCell>
        <mxCell id="RzBpZSi8kTuK9JfsFtR7-55" value="&lt;i style=&quot;border-color: var(--border-color); color: rgb(0, 0, 0);&quot;&gt;&amp;lt;value&amp;gt;&lt;/i&gt;" style="connectable=0;recursiveResize=0;strokeColor=inherit;fillColor=#FFFFFF;align=center;fontStyle=0;fontColor=#FFFFFF;html=1;" parent="RzBpZSi8kTuK9JfsFtR7-4" vertex="1">
          <mxGeometry x="485" width="90" height="33" as="geometry">
            <mxRectangle width="90" height="33" as="alternateBounds" />
          </mxGeometry>
        </mxCell>
        <mxCell id="RzBpZSi8kTuK9JfsFtR7-51" value="&lt;i style=&quot;border-color: var(--border-color); color: rgb(0, 0, 0); font-family: Helvetica; font-size: 12px; font-variant-ligatures: normal; font-variant-caps: normal; letter-spacing: normal; orphans: 2; text-align: center; text-indent: 0px; text-transform: none; widows: 2; word-spacing: 0px; -webkit-text-stroke-width: 0px; text-decoration-thickness: initial; text-decoration-style: initial; text-decoration-color: initial; font-weight: 400; background-color: rgb(251, 251, 251);&quot;&gt;&amp;lt;value&amp;gt;&lt;/i&gt;&lt;br&gt;" style="connectable=0;recursiveResize=0;strokeColor=inherit;fillColor=#FFFFFF;align=center;fontStyle=0;fontColor=#FFFFFF;html=1;" parent="RzBpZSi8kTuK9JfsFtR7-4" vertex="1">
          <mxGeometry x="575" width="90" height="33" as="geometry">
            <mxRectangle width="90" height="33" as="alternateBounds" />
          </mxGeometry>
        </mxCell>
        <mxCell id="NaWDhg6aUQIwYj67lBHU-76" style="shape=tableRow;horizontal=0;startSize=0;swimlaneHead=0;swimlaneBody=0;top=0;left=0;bottom=0;right=0;dropTarget=0;collapsible=0;recursiveResize=0;expand=0;fontStyle=0;strokeColor=inherit;fillColor=#FFFFFF;fontColor=#000000;" parent="NaWDhg6aUQIwYj67lBHU-52" vertex="1">
          <mxGeometry y="66" width="665" height="33" as="geometry" />
        </mxCell>
        <mxCell id="NaWDhg6aUQIwYj67lBHU-77" value="CBR:" style="connectable=0;recursiveResize=0;strokeColor=inherit;fillColor=#FFFFFF;align=center;fontStyle=1;fontColor=#000000;html=1;" parent="NaWDhg6aUQIwYj67lBHU-76" vertex="1">
          <mxGeometry width="126" height="33" as="geometry">
            <mxRectangle width="126" height="33" as="alternateBounds" />
          </mxGeometry>
        </mxCell>
        <mxCell id="NaWDhg6aUQIwYj67lBHU-78" value="&lt;span style=&quot;font-weight: 400;&quot;&gt;&lt;i&gt;&amp;lt;value&amp;gt;&lt;/i&gt;&lt;/span&gt;" style="connectable=0;recursiveResize=0;strokeColor=inherit;fillColor=#FFFFFF;align=center;fontStyle=1;fontColor=#000000;html=1;" parent="NaWDhg6aUQIwYj67lBHU-76" vertex="1">
          <mxGeometry x="126" width="99" height="33" as="geometry">
            <mxRectangle width="99" height="33" as="alternateBounds" />
          </mxGeometry>
        </mxCell>
        <mxCell id="RzBpZSi8kTuK9JfsFtR7-40" value="&lt;i style=&quot;border-color: var(--border-color); color: rgb(0, 0, 0); font-family: Helvetica; font-size: 12px; font-variant-ligatures: normal; font-variant-caps: normal; font-weight: 400; letter-spacing: normal; orphans: 2; text-align: center; text-indent: 0px; text-transform: none; widows: 2; word-spacing: 0px; -webkit-text-stroke-width: 0px; background-color: rgb(251, 251, 251); text-decoration-thickness: initial; text-decoration-style: initial; text-decoration-color: initial;&quot;&gt;&amp;lt;value&amp;gt;&lt;/i&gt;&lt;br&gt;" style="connectable=0;recursiveResize=0;strokeColor=inherit;fillColor=#FFFFFF;align=center;fontStyle=1;fontColor=#000000;html=1;" parent="NaWDhg6aUQIwYj67lBHU-76" vertex="1">
          <mxGeometry x="225" width="120" height="33" as="geometry">
            <mxRectangle width="120" height="33" as="alternateBounds" />
          </mxGeometry>
        </mxCell>
        <mxCell id="RzBpZSi8kTuK9JfsFtR7-44" value="&lt;i style=&quot;border-color: var(--border-color); font-weight: 400;&quot;&gt;&amp;lt;value&amp;gt;&lt;/i&gt;" style="connectable=0;recursiveResize=0;strokeColor=inherit;fillColor=#FFFFFF;align=center;fontStyle=1;fontColor=#000000;html=1;" parent="NaWDhg6aUQIwYj67lBHU-76" vertex="1">
          <mxGeometry x="345" width="70" height="33" as="geometry">
            <mxRectangle width="70" height="33" as="alternateBounds" />
          </mxGeometry>
        </mxCell>
        <mxCell id="RzBpZSi8kTuK9JfsFtR7-48" value="&lt;i style=&quot;border-color: var(--border-color); color: rgb(0, 0, 0); font-family: Helvetica; font-size: 12px; font-variant-ligatures: normal; font-variant-caps: normal; letter-spacing: normal; orphans: 2; text-align: center; text-indent: 0px; text-transform: none; widows: 2; word-spacing: 0px; -webkit-text-stroke-width: 0px; text-decoration-thickness: initial; text-decoration-style: initial; text-decoration-color: initial; font-weight: 400; background-color: rgb(251, 251, 251);&quot;&gt;&amp;lt;value&amp;gt;&lt;/i&gt;&lt;br&gt;" style="connectable=0;recursiveResize=0;strokeColor=inherit;fillColor=#FFFFFF;align=center;fontStyle=1;fontColor=#000000;html=1;" parent="NaWDhg6aUQIwYj67lBHU-76" vertex="1">
          <mxGeometry x="415" width="70" height="33" as="geometry">
            <mxRectangle width="70" height="33" as="alternateBounds" />
          </mxGeometry>
        </mxCell>
        <mxCell id="RzBpZSi8kTuK9JfsFtR7-56" value="&lt;i style=&quot;border-color: var(--border-color); color: rgb(0, 0, 0); font-family: Helvetica; font-size: 12px; font-variant-ligatures: normal; font-variant-caps: normal; letter-spacing: normal; orphans: 2; text-align: center; text-indent: 0px; text-transform: none; widows: 2; word-spacing: 0px; -webkit-text-stroke-width: 0px; text-decoration-thickness: initial; text-decoration-style: initial; text-decoration-color: initial; font-weight: 400; background-color: rgb(251, 251, 251);&quot;&gt;&amp;lt;value&amp;gt;&lt;/i&gt;&lt;br&gt;" style="connectable=0;recursiveResize=0;strokeColor=inherit;fillColor=#FFFFFF;align=center;fontStyle=1;fontColor=#000000;html=1;" parent="NaWDhg6aUQIwYj67lBHU-76" vertex="1">
          <mxGeometry x="485" width="90" height="33" as="geometry">
            <mxRectangle width="90" height="33" as="alternateBounds" />
          </mxGeometry>
        </mxCell>
        <mxCell id="RzBpZSi8kTuK9JfsFtR7-52" value="&lt;i style=&quot;border-color: var(--border-color); color: rgb(0, 0, 0); font-family: Helvetica; font-size: 12px; font-variant-ligatures: normal; font-variant-caps: normal; letter-spacing: normal; orphans: 2; text-align: center; text-indent: 0px; text-transform: none; widows: 2; word-spacing: 0px; -webkit-text-stroke-width: 0px; text-decoration-thickness: initial; text-decoration-style: initial; text-decoration-color: initial; font-weight: 400; background-color: rgb(251, 251, 251);&quot;&gt;&amp;lt;value&amp;gt;&lt;/i&gt;&lt;br&gt;" style="connectable=0;recursiveResize=0;strokeColor=inherit;fillColor=#FFFFFF;align=center;fontStyle=1;fontColor=#000000;html=1;" parent="NaWDhg6aUQIwYj67lBHU-76" vertex="1">
          <mxGeometry x="575" width="90" height="33" as="geometry">
            <mxRectangle width="90" height="33" as="alternateBounds" />
          </mxGeometry>
        </mxCell>
        <mxCell id="NaWDhg6aUQIwYj67lBHU-82" style="shape=tableRow;horizontal=0;startSize=0;swimlaneHead=0;swimlaneBody=0;top=0;left=0;bottom=0;right=0;dropTarget=0;collapsible=0;recursiveResize=0;expand=0;fontStyle=0;strokeColor=inherit;fillColor=#FFFFFF;fontColor=#000000;" parent="NaWDhg6aUQIwYj67lBHU-52" vertex="1">
          <mxGeometry y="99" width="665" height="33" as="geometry" />
        </mxCell>
        <mxCell id="NaWDhg6aUQIwYj67lBHU-83" value="Class entropy:" style="connectable=0;recursiveResize=0;strokeColor=inherit;fillColor=#FFFFFF;align=center;fontStyle=1;fontColor=#000000;html=1;" parent="NaWDhg6aUQIwYj67lBHU-82" vertex="1">
          <mxGeometry width="126" height="33" as="geometry">
            <mxRectangle width="126" height="33" as="alternateBounds" />
          </mxGeometry>
        </mxCell>
        <mxCell id="NaWDhg6aUQIwYj67lBHU-84" value="&lt;i style=&quot;border-color: var(--border-color); font-weight: 400;&quot;&gt;&amp;lt;value&amp;gt;&lt;/i&gt;" style="connectable=0;recursiveResize=0;strokeColor=inherit;fillColor=#FFFFFF;align=center;fontStyle=1;fontColor=#000000;html=1;" parent="NaWDhg6aUQIwYj67lBHU-82" vertex="1">
          <mxGeometry x="126" width="99" height="33" as="geometry">
            <mxRectangle width="99" height="33" as="alternateBounds" />
          </mxGeometry>
        </mxCell>
        <mxCell id="RzBpZSi8kTuK9JfsFtR7-41" value="&lt;i style=&quot;border-color: var(--border-color); font-weight: 400;&quot;&gt;&amp;lt;value&amp;gt;&lt;/i&gt;" style="connectable=0;recursiveResize=0;strokeColor=inherit;fillColor=#FFFFFF;align=center;fontStyle=1;fontColor=#000000;html=1;" parent="NaWDhg6aUQIwYj67lBHU-82" vertex="1">
          <mxGeometry x="225" width="120" height="33" as="geometry">
            <mxRectangle width="120" height="33" as="alternateBounds" />
          </mxGeometry>
        </mxCell>
        <mxCell id="RzBpZSi8kTuK9JfsFtR7-45" value="&lt;i style=&quot;border-color: var(--border-color); font-weight: 400;&quot;&gt;&amp;lt;value&amp;gt;&lt;/i&gt;" style="connectable=0;recursiveResize=0;strokeColor=inherit;fillColor=#FFFFFF;align=center;fontStyle=1;fontColor=#000000;html=1;" parent="NaWDhg6aUQIwYj67lBHU-82" vertex="1">
          <mxGeometry x="345" width="70" height="33" as="geometry">
            <mxRectangle width="70" height="33" as="alternateBounds" />
          </mxGeometry>
        </mxCell>
        <mxCell id="RzBpZSi8kTuK9JfsFtR7-49" value="&lt;i style=&quot;border-color: var(--border-color); color: rgb(0, 0, 0); font-family: Helvetica; font-size: 12px; font-variant-ligatures: normal; font-variant-caps: normal; letter-spacing: normal; orphans: 2; text-align: center; text-indent: 0px; text-transform: none; widows: 2; word-spacing: 0px; -webkit-text-stroke-width: 0px; text-decoration-thickness: initial; text-decoration-style: initial; text-decoration-color: initial; font-weight: 400; background-color: rgb(251, 251, 251);&quot;&gt;&amp;lt;value&amp;gt;&lt;/i&gt;&lt;br&gt;" style="connectable=0;recursiveResize=0;strokeColor=inherit;fillColor=#FFFFFF;align=center;fontStyle=1;fontColor=#000000;html=1;" parent="NaWDhg6aUQIwYj67lBHU-82" vertex="1">
          <mxGeometry x="415" width="70" height="33" as="geometry">
            <mxRectangle width="70" height="33" as="alternateBounds" />
          </mxGeometry>
        </mxCell>
        <mxCell id="RzBpZSi8kTuK9JfsFtR7-57" value="&lt;i style=&quot;border-color: var(--border-color); color: rgb(0, 0, 0); font-family: Helvetica; font-size: 12px; font-variant-ligatures: normal; font-variant-caps: normal; letter-spacing: normal; orphans: 2; text-align: center; text-indent: 0px; text-transform: none; widows: 2; word-spacing: 0px; -webkit-text-stroke-width: 0px; text-decoration-thickness: initial; text-decoration-style: initial; text-decoration-color: initial; font-weight: 400; background-color: rgb(251, 251, 251);&quot;&gt;&amp;lt;value&amp;gt;&lt;/i&gt;&lt;br&gt;" style="connectable=0;recursiveResize=0;strokeColor=inherit;fillColor=#FFFFFF;align=center;fontStyle=1;fontColor=#000000;html=1;" parent="NaWDhg6aUQIwYj67lBHU-82" vertex="1">
          <mxGeometry x="485" width="90" height="33" as="geometry">
            <mxRectangle width="90" height="33" as="alternateBounds" />
          </mxGeometry>
        </mxCell>
        <mxCell id="RzBpZSi8kTuK9JfsFtR7-53" value="&lt;i style=&quot;border-color: var(--border-color); font-weight: 400;&quot;&gt;&amp;lt;value&amp;gt;&lt;/i&gt;" style="connectable=0;recursiveResize=0;strokeColor=inherit;fillColor=#FFFFFF;align=center;fontStyle=1;fontColor=#000000;html=1;" parent="NaWDhg6aUQIwYj67lBHU-82" vertex="1">
          <mxGeometry x="575" width="90" height="33" as="geometry">
            <mxRectangle width="90" height="33" as="alternateBounds" />
          </mxGeometry>
        </mxCell>
        <mxCell id="NaWDhg6aUQIwYj67lBHU-85" value="Refuse balancing" style="rounded=1;fillColor=#0057D8;align=center;strokeColor=none;html=1;whiteSpace=wrap;fontColor=#ffffff;fontSize=12;sketch=0;" parent="1" vertex="1">
          <mxGeometry x="521.3199999999999" y="723" width="100.68" height="53" as="geometry" />
        </mxCell>
        <mxCell id="NaWDhg6aUQIwYj67lBHU-86" value="" style="html=1;shadow=0;dashed=0;shape=mxgraph.atlassian.close;fillColor=#BA3200;strokeColor=none;html=1;sketch=0;" parent="1" vertex="1">
          <mxGeometry x="503" y="742.5" width="14" height="14" as="geometry" />
        </mxCell>
        <mxCell id="NaWDhg6aUQIwYj67lBHU-87" value="Accept balancing" style="rounded=1;fillColor=#0057D8;align=center;strokeColor=none;html=1;whiteSpace=wrap;fontColor=#ffffff;fontSize=12;sketch=0;" parent="1" vertex="1">
          <mxGeometry x="315" y="723" width="107" height="53" as="geometry" />
        </mxCell>
        <mxCell id="NaWDhg6aUQIwYj67lBHU-88" value="" style="html=1;shadow=0;dashed=0;shape=mxgraph.atlassian.checkbox;fillColor=#008465;strokeColor=none;html=1;sketch=0;" parent="1" vertex="1">
          <mxGeometry x="295" y="742.5" width="14" height="14" as="geometry" />
        </mxCell>
        <mxCell id="cDzh0OEQFYnWzeQINuw8-5" value="CHECK DATA BALANCING" style="rounded=0;whiteSpace=wrap;html=1;" parent="1" vertex="1">
          <mxGeometry x="90" y="130" width="750" height="40" as="geometry" />
        </mxCell>
        <mxCell id="RzBpZSi8kTuK9JfsFtR7-1" value="" style="shape=image;verticalLabelPosition=bottom;labelBackgroundColor=default;verticalAlign=top;aspect=fixed;imageAspect=0;image=data:image/png,iVBORw0KGgoAAAANSUhEUgAAAyQAAAIRCAYAAAC7ynmuAAAAAXNSR0IArs4c6QAAAARnQU1BAACxjwv8YQUAAAAJcEhZcwAAEnQAABJ0Ad5mH3gAANVGSURBVHhe7J0FnCTF9cfrZt3l3A93ggcLFpzgLiFBgluA/AmHBEJwCO5BggYnuLsEdw49Ds79bt3n39/armNYdu9u9vbmunp/3/3MZ6p7etteV/V7Ve+96pMMMEIIIYQQQgixBEiE30IIIYQQQgiRcWSQCCGEEEIIIZYYMkiEEEIIIYQQSwwZJEIIIYQQQoglhgwSIYQQQgghxBJDBokQQgghhBBiiSGDRAghhBBCCLHEkEEihBBCCCGEWGLIIBFCCCGEEEIsMWSQCCGEEEIIIZYYMkiEEEIIIYQQSwwZJEIIIYQQQoglhgwSIYQQQgghxBIj66yAsCyEED/jnXfeMV9++aUZPny4ycrKCte289JLL5nZs2ebwYMH2+U77rjD3HLLLWa77bazy2LhaWxsNLfeequ55pprzH/+8x+zzjrrmPLy8vDXX/LVV1+ZV155xZSVlZnS0tJwbc/R1tZmrrrqKvPCCy+Y3/zmN6a1tdX885//NC+//LJdjitz5841p512msnJyTFLLbVUuPaXfPPNN+bkk082K6+8sunbt2+4duHgXr755pvmgQcesDJkX4lEwgwcOND06dMn3GrRaGpqMn//+9/NrFmz7DkuCvfdd5958MEHzcYbb2zPsyM8K1zPu+++a8aMGWOfzalTp5rc3FxTXFz8i2t67LHHzL///W/z29/+NlzTc8yZM8eMHj3a5OXlmVGjRpkZM2aYv/71r3Z5fvJcFLieu+++22y++ebhGiFEd9AIiRCiSx599FGrKDc0NIRrfgKl4plnngmX2hUTlK2Foaamxip0KDrCmP/+97/mnnvuMWuuuabZZpttTElJSfjLL2lpaTE333yzOf/8860i1JHPP//c7LnnnuHST3Cv//znP4dLC6ajPCdNmmQmTpwYLi0af/rTn8y4cePCpWjBNSeTSVuurq629wzjIZX6+nrz7bff2u90QGH+y1/+Yi666CJ7L6uqqsx7771nTj31VPP666+HWy06nP/48ePNzJkzwzXdB6V+woQJ8+5JR3hOMFquvPJKa8A+++yz5rbbbjOHHnqolTPGSupzxH4Wtp2As88++xf3f36wb84JqCvff/+9vc+Lytdff20OPvjgcOkn0r0eIUTnyCARQvQIe++9t1WSFwYUBhQyFDRhzGeffWY22mgjc+yxx5o//vGP8+11x5hje3pkn3rqKdsbngpKMkpYR7jXC2tQ0BN+2GGHmRNPPDFc07P8+OOPdlQoajDadM4558wbBULRRBlnJLAneOSRR8yHH35ozj33XGuUnHfeeeayyy6zxv2vfvWrcCs/GTFihLn88svth5E+jOYBAwbYEYsPPvgg3MpYg/uMM84IlxbM5MmTF/r+M2L4j3/8w47m9DQ8rzy3HeF6GIURQiwactkSQnTJiy++aBXZ3/3ud9btIRWUq379+s1T3uhBxP3EuUbQK0mvL65duHPQY4srTGVlpe1FpecUxReFmt5yXFZw8+DF/7///c/2tqK8sZ/+/fvb3xy41uA+xPmNHTvWVFRUzNsfZWD0huPxO8fDlWSFFVawPf1si7sMihLKDoqT2z/nw37pXeW8+F/Oo6ioyBoKXCOGAD3bzc3NZtCgQZ26sjgwvjgO14MLHL3WnGNBQYGpra211/Hqq6/afeHegrvLyJEjw//+JdzPt956yxp/nAduMSuttJL9DeX5+eefNx999JEZOnSoPVfuFa47XBMy4Nis57yQ39tvv23q6uqs4sf+vvvuO7s/RlpYN2zYMNsL/Nxzz9l7suyyy9p7y7Vg/HD9zp0PhY37svTSS9tlx9NPP23Ph3vL+XG9nAf7Rz5DhgyxsmJ/7JdrZD/InueC3yD1XiJDRim4b8ivMxmwr+nTp9tzBI7PufM/PFOAjDkW58D++R+Oh3LLcXiGuT7+h21xUeR+Pvnkk9Yo5F5yTTxfyMI9f53BiCPXzMgB8gf2zbPVsX5xbdyH1157zdYtjCOuk2eE36gj/I6seYaRpdsH2z7xxBNWdmuvvbZdB5w/zwH3nzLbc77OrQr5sj/3zHNPkSnP5A477NDpPeaesT2jqHvssYfJzs62dYlRvg033NDeG56lHXfc0W7/ww8/2PPHgAHqALLkvHgW+Z37T13jeeQ3rof7z/9xvvzO9pRpWzg+545MkR/HR34Y77hUrbrqqvZZYjvOhd+5X+66kT8y5f46eG7YF+0Z9YrjcW/YBpm7esr58gzj1upAxrQvyIdz5jicmzvep59+au8r95PnEXnQLrAP7h9wzR2fde4x9WF+7Y0QviKDRAjRJbyEF9YgIYaE+Id9993XKikXXnihdffiRYzShQLFS3WLLbYwN910k32Jo4zw8ublTNwEx/jb3/5m90VvNYoWcSn07HMc9yLGP559o2hOmTLFPPTQQ1bZQ1lYffXV7Ta4V3zyySdWGcYI4mWOS9S1115rFR8UJvZ/1113WYVk++23twoDSgwjFSg6KKPEcqAU4lbFKMbpp59u/xfFhv9FeU9VRlJBkb/uuuts/AXnzvLtt99ulT2UWQwBescxAnAPmjZtmlWMNtlkk3APP4f//7//+z/7+1ZbbWUVlvfff9/Kh3v8xRdf2HuBmw33FkUWJRyjBKWHb+TJeq5rxRVXtL303A8UWJRAtkeJvfrqq+16FFFnkKDEYkChTKOkIRuUQ+4roDzxfwcccIBddvzhD38wO+20k1UakT3/y/WyP54DFFeURIwsetaRPQronXfeaWW42WabWUXt3nvvtefLvUQGPE8YZ9xLZ1CmgkLLc+qUYZ7BU045xf7fLrvsYtf961//Mvfff7/Za6+97D1DvjxH3Btcj1A+kRPPGcrn+uuvb88dgwQDj+cAg4Lnj/qCUt6VwkiMBfeU5xEl2SmoHWHfnCd1A5lwXJ5F4i6430cffbS9d8iQZ4Z7xrbULejMIOH/cT/j2eD4PA+48a233nrzRuQwHhjRoK4gY55v7gnyXxiDZNdddw3XtsO58vvDDz9s7wv7fPzxx60cd9ttN7sNoynUSc6B7al3PJ9cC25gXCd1kuujnqyyyip2P9RR4tswGrgPrKOtIQYIpR35OYOE/+V6OQbfuICtu+6684zSSy+91G5D/Xbw3LF+n332sfWKe4WRguw5P1dPuR7q3M4772z/j2f7+OOPt88aRjhtC3WeY9MhAsiLc8DVjecaeblnjXoN/M5oD/ce44pnFvlsueWWJj8/324jRKwIHnYhhOiU4OWe3HTTTZPHHHNM8oQTTvjZJ1ASk4FyGG6ZTAYv72Sg+NlyoJwkgxd08qWXXrLLjkBBsN+BYpwMXvTJQBm0y45AWUsGSkEyUCSTgSJj17355pvJ4MWfDJR4uxwoLMlAAU0GSoFdhkBZSAaKVzIwZMI1yWRgwCT33nvvZKCAh2va4dhu3xAoiclA+Um+8sordpntWf7jH/+YDBRRuy5QpJN77rmnXe+OGyjMyd///vc/uwcdCZSpZKBgJK+//nq7DwgUcLsuUEbsMgRGxnz34wiMj2SgECcD5dIuB8qQvReBYmaXgfvDvegI95pr6MiRRx5p7y/n6ggUpOSpp55qfwPOPVBm7bPAOTgCpSm58cYb22sC5LDtttvaciqBwZGcNGlSuJRMbr311j87Z0DOgdI7b1/AvQ6U8GRgdNhzOPTQQ5MnnniiPT9HYED9bDmVQDm0MmtsbLTL3OcDDzzQXm+gyNvn9PDDD08GhpD9febMmclAUU4GCrRdDgzWZKBIJ2+88Ua77Pj444/tdQeGsX0OgGd7u+22SwbKuV3ujKlTpyaPOuooK0PqD8cOFPLkZ599Fm6RtPcpMI6TgTI677yBc3XXGRgV9tvB/3BPA8PdLrPtQQcdlLzhhhvsclVVVXLfffdNXnzxxfZ+AfvimQuUZ7vMsQKjMXnFFVfMO06gBFuZ/+lPf5p3nR1h/XHHHWfrQme45zEw3OxyYIAn999/f1uGwJhOBoZsuNROoPSHpaS9Rx3vP3UYuXIvA4MpXJtMBgZDMjA0k4ERapcDI8Pun2tHlsC1/fWvf7VydveXZ+rCCy+0ZQfPI22YIzBQ7LPYEa6He+246KKL7Dkga0AWtKOBwTvvXM8991z7DH766ad2GQKjxdaTwMi1z/rJJ59s293UZ3t+z7oQvqNxPyHEfMEtgp5PYkRSP65XtTPoSaWXmx5uesAd9CTPD0YOOF6gXM3rPd5ggw1spiB6oIGeSnqXl1tuObsM+HF3RqAc297FVDgHetXp/cSXnZEWRgXo9UyFnmN6XYHRB1w3lllmmXnHpWeTc8MFrCu4dkYlAiXY7gPYDz36jLikQ9Be2xEIRgboJQZ6zAMFxfbCLgqMQMzPTcyROgIFjGzQO02v86JCgD6jTYyMIAs+XDO9zMTM8EwxIkevuHPjAXrVuxqR4H85P3qrcQfjPAn4R97E2bCO0Qeet+5Ab7VzseG5wp2N3vSu4P65mBFGZHAjYpQpULrtyBMw6kJPPLFEqaM+jB6666TucQ+IQ+EZZpSB+8aIWWfQm8+ziJy5bu4tPe7UK0ZsuB+cN73/qSM8PO+MJCwKbl+MlHQG94SRGFzekDfg+rYwMBJXWFgYLnUNo6s8B8D5kAmQUdfUtqmnYJQM2XJdgNwYzeG+MzrpYATH1WPg2ece4brFOdJuMaLGyJa7d/N71oXwHT3ZQoj5gqKFUoKrSupnfkoDL04ColEgySqEuw7eofNT1oAXNj76HV+6KGC4pgAv7I7H5hw7c9lxSoijpaXFKnAYIxgKKPdsg7FA7EoqzhhxsE1H44brdIpxZ+ASxjE67gtlBaUzHTg/FE4MPdzQcI/DHQmlG2NtfuexIFyMxYLgXjkFHHAdQeFC4V1UUBBxk8ElK/WDYYp8+SYzG0r1DTfcYN2wjjnmGOtKNr9rR+nGiEW5g7XWWsu6MaGUY4zwv90NKO+oDPOMYBjMD57T5Zdf3hx55JHWCMMgxgh32ex4LlFAu5IJRgwKLsYIrmQ8D04uLHcG++TZx50u9d7iSoUbEcfFlYvntGM9wu1rUeAeI7uurgcXROo89ZJ2Apc53OAWBqf0LwjaoVRoP7hf3JeehjpPPFIqLu6DtsvR0e3KdVgge+4XSSUwlHFxxF0OmRNvghyFiCMySIQQi4U11ljDKj0oXTfeeKPt+cU/HYWqK1DeUYw6guKA3zvwcu+4D3p26eXtiBtlcdDTTm85WY4wkFCGCDBG4e1Ix//tDiiLnFtHJRWlpaOxtCDoYeWD8vbGG2/M+6BccW+JJekuC9vr6pRlB/ecD9cJ7KejccByZ7LpCPJlxAUFrOOHHmfAMMUowQef54rRJp4xZ6x2BgYJI2LEJqAocv+Iufn444+tgsdz6pTBJcFqq61mR92Id8CgoA7w7KUqr6kQEM21EF9w5plnWoP/pJNOsv/XFTwjyAYjprP764waDJOOCi/B24sCI4EYYB2NAgcGETFhjKYSR8E9QBnnfiyIha2jqSMTwMgYz6Xr2ODedLzuhTl+Z3AvO7Zh1HeOh+G5sGBsIVuedWJumFflggsusCNbQsQRGSRCiB4H1wuUAF709KDTO4qyicJDkCzr6aHkRZ0KyiHBwyjaDnpLMSTchIsEw9LbjQLOcfgQuLowOMWY4/MBlLuOCktPQbYplB6Cpp0iT/As7jkE0S8sXCPB8QT+M2Fh6gcXIBQ+gmBRerivKNgd7y2931znovSwMqrjRhqAERuO44KBMRgwwOgVB87n9ttvn+eK46B3uKMRgSsVsiDBASNP7sN9w6DjG0UPJZRefBRoXHZ4nniuugLXGP6XIG8Cj/n/X//611axwwXOBeR3hruXGGIdr6E78Cx3vG7uH88818OICyMSKO8YXKmGLM8u58A9BfcMs45RIoKpuwK54JKH0s/27t5ybe7Zxw2S+8rom7tW9olLV3fgOhmJJBD9kEMOCdf+ErbjOjg258kIGNftRi9oPxbVKKI94bkEngWyX3EsXNKA4HaeZfccYYxgBKRCpwW/Y8zMj0022cSOyLn7yrVg9JFVbGENEu4/z4V71jFyGD3i+F2NggnhOzJIhBA9Du5FZNsiUxA+8hdffLHNnEVvKCMcvNxRkHAZwXUFNw2UDlxpiFFgJIX/oUcX/3rWoYwDCiQvff6P7E3777+/VSydW8/8wF0HZRh3Mtx+yMiDUr+4esjp1STOg2MwIuMyUGGkdMxIND8YAaGXn+vuCNfNfcMdDuUORQvFh7gVsiqhDKHEonyhaHG/uH4U9HTh3jHnAtmPyIbGh5gDlH7AMOLYZBkiexUjUMQ6dHQDYjueDdxQ+GY0YIsttrD74bzZL73l9JwzmoErF8oYIwHIHOOMz0EHHWRHSdzoWWfwzPFcYAii1AGKP0oe9yM1Fqkj3Fv2j2vcUUcdZZ+XRXFP43knu9dxxx1n7w/3cb/99rPGEZmzuL8YJGSII66CY7Id2ce4pyijXA9KOudC3eIeM1oyP/clXA2POOIIO/kmI4I8E2S24v4x8SBwbOra9ddfb58bRjVxiVuY2CLgGUU+nCcjWrjUkX2K54WYqa7AEOX/uE6Ma+YxoY47tyeeFVwSGTVhxIBYk3ShPWKiRq6Jb7KYMd8M1wzEgnH+1AueO46F7FOhXmE08rxzfy655JLwl59D/XIxQNxnRvToLNh9991/sc+uwIhBvtQFnnPaKu4RhlNXGf2E8B2l/RVCzBeUagIu6S1OhV48FMhUhQVlChcUejzp5UUR4OWMwo8yiBFBzywKInEpbI9iyLYEeKKoo8CzjHLNMRgZQYlK9dcn4BwFG0UU5QXjB2WLIGOnHPO//JbqKsJ5EeDqettx30FR4zzoISYeA7hW4gpS/d7ZHyMerlcVWMc+UJo6g+tkZIh7RI8nCiVGBconCk4q7Lsr5Y97wXWg2HG/OsI5oPSjrFJ2140ChQJDsDXrucfcM9ZzPK6ba+D8O/q9A9ukXhsGHf7sBANzbS7ZATIF5Idcub/IHXcplDfOjXNCkQbuLfcaRZnz5JlBvkxoR08yvdnIh2tlJAljlBEezpF98RsGCookz9T8lHHODSOJffDcAM8B58q1IR+nmAKy5z6h/HGNxEulPqecK9eBcsn9YD+p8Hy4OTY6wm/IgvrANTBaxWgNinBqgDNljExGRdiOa+fZ5v9xzeIZwshkZAWDCYOec+PZd/eCa2TZyRVZbrrpplbeGP/sG0MfGbr0t+yf7TDUGAlA+eb6kZUz7DqD9TxnPNMcn3vEfk844QQr647/R6cEzwZQx7gWrpNzQ94Yqu6Zou2hDeKZ5dnl/5AF95AR1Y7xWfwfdZn7ATwvnAt1ixTCHJv2hPvrzotzxzClfjKywTkwmsZxuBZA5jzDzjChPrlrYJ+u3eFZY8SQ80A+/IaBSTuWeh94RngW3Dq+eZZ4pjgu/8c+MNYZBUQOGLJdxeII4Tt9ggZg0cehhRAig6Dwpr7c8VNnNIXeRN9nvBZCCCF6GzJIhBDewaSL+LfTU0mAO6lgcYWh57PjSI4QQgghoo0MEiGEd+BaQbYsUsXiOoOrz/zcdoQQQggRXWSQCCGEEEIIIZYYyrIVQQjojLOdKBs4HkiO8UByjAeSYzyQHOOB5Jg+MkgiCKkYyaoRVzC4NNus/5D+VI2u//TELOtiydNx3hnhHyTrWByzx4vMgn7j5r0RC48MkggSd2UdJVaKrP/w8hT+IznGA8kxHkiO8UByTB8ZJCLjkPN/cU1EJzLHwk7yJaKN5BgPUufpEX5CKvOO86oI/2AOoNS5jcTCIYNEZBwyJDERlvAb0u1qpMt/kKPwHyYzFH5Dr3qc3bV7C+g36DkiPZRlK4Iwn8Kdd975ixmA4wINrkZJ/AdfZ2YUTp2gUPgHcmTGdOE3GJbUR+EvGCQosnF99/tIU1OTjc9KpxMVOTY3N9vZ/X2H9zv6Gu8IRn4WJzJIIkjcDZLGxkaTk5Oz2B9usXipr6+3DZUMEr9BjnIT8R/J0X9Qx3g/yt0nOvz444/WsEjXuECWcXg3ch10WpWUlJi+ffuGaxcPMkgiSNwNEnobuDaMEuEvU6ZMsZMRyrD0G+Q4aNCgcEn4yrRp0zQ5qOfQC8/7sV+/fuEasaQZN26cGTFiRFrvOdRqZJmdnR2u8RsSLfGeGDZsWLhm8SBNQmSc3NxcKbExQKMj8UC9sfEgDu4hvR3aU8kxHsTp3ZgpfU1aocg4UmLjgeQYDyTHeCA5xgPJMR70hByJX3n33XfN888/b0dqgJGXe+65x5Z7Cvb5+eefm6eeemqJzp8il60IIpct4QNy2YoHctmKB3LZ8h+5bEWPji5bFXeeZb8XhRFF5eaJrQ8yw4q6TiYyZ84c849//MOUl5fb9vmTTz4xO+64o9l8883NRRddZEaPHh1uueg88cQT5rHHHjMfffSRueuuu8wyyywT/tIOQfqTJk2Sy5aIHwReKsOW/yjDVjxQZqZ4ENcOrN4ESq/mBRJw7rnnmrXXXtucdtpp5tBDDzWXX3652WCDDcJf23n99dfNySefbP785z+bl156ya4jKcK//vUvc9RRR5mzzz7bGjYYuezv6KOPNjfccINpaGiw2zq22moru/8lnRRDBonIOFjbGpjzHwLdhP9IjvGA3nXhNy4YWvRucJv64IMPzPrrrz+v0w9jtWOnA1mvTjzxRHP44YfbkY2xY8faz4wZM8w555xj9thjD/t/N910kxk8eLBdt+mmm/7Cq4G43ih0EssgERkHCx6jRPgN+fJlWPqPJvCKB6T9FX5De9qx91r0Pugk4lnAUJgfGC5nnXWWNTQmT55s3TZJz/vVV1+Z++67zxQWFtoR8BVXXNGOoBAjUllZucD9LilkkIiMw7BgRwtd+AcNn1y2/Ac5Cv+Rq4//yGVLAEYEIxpffvlluKad1NEzAt4xOk499VRz++23my222MJ29BLnQYzJ8OHDzRlnnGHefvtts9NOO1mXLUZBiD1hBCWKSCsUGYeKpJ51/1GPbDyQHOMBI8/Cb3gvSo4Cw4GRD5IbkWWLxCOPPvqoee6558It2mE2eEa433nnHfPiiy/adbhsTZgwwayzzjrWpWvWrFnm2WeftXrXhhtuaEdH+L9UeAcQvI9BM3HiRBtzsiRQlq0IoixbIgp8OXViWOqcmtlzTFF52XxHSVYcODQsiaiiLFvxQFm2/EdZtqJHxyxbB792v/1eEKjWXb0b++UXmb+uvpmpzCsM13QOrlePP/64qaqqMksttZTNskXWLYyTXXfd1caZ/Pe//7WjIZzjyJEjrW5177332mD2VVdd1caREPzOB6Nkk002MZttttnPvFS+/vprc+utt4ZLxo62EOjuyFSWLRkkESTuBgn+kfQAyN0n2iz/j2PCUudkmz6mxcy/+fj69KvDkogq9Japc8B/JEf/QR3DKInLDN9xoDsztcP8DBLfyJRBIpctkXEYHlQmkegzu652vp/iRI6ZW1/X6W/uI6LPkpwIS/QcNTU1YUn4Ckpsba3aTd9Bjkrckz4ySETGcRkkhN8UZ+cajXH5D8P4wn86+oUL/+C9KDnGA+k46SODRGQcsohoYkT/GV8317Sp0fWesrKuZwsW/qAJLv0HtyBlvfMfXLWk46SPDBKRccgKIZct/xlSUGISigPyHrlsxQPJ0X/oVZfrnf8gR+k46SODRGQcDWXGgz5y2IoFqo/xQHIUQviMDBKRcUhbp2ww/jOmarpplRLkPUoVGw/69+8floSv4LLFTNrCb3DZ6olMaczazxwi99xzj/n888/tOmJwL7nkElvuKUg0xCzuHGfq1Knh2syjtL8RJO5pf+fOnWsKCwtllESc/qMPCkuds0JpP/NN9cz5xpFMP++n3OYimkyfPl3KbAxg9mXNX+E3ZGZi/ggZJdGhY9rfBb0XF4bhFf3MY4edaoaWdS1njnvVVVeZdddd1z4P3333nVl55ZXNRhttZGdiZ8b1nuKKK64wQ4cOtTrnk08+aU477TQzcODA8Fel/RUxRunw4kFuIktOWzFAvs7xQO2q/9A/LDkK+Nvf/ma23HJLs88++5itt97aHHnkkXZSw1SYIHG77bazkxjef3/7hI2Mdpxxxhlm4403Nvvtt5/tqGDS1D/+8Y/2/0899VQbx5vKcccdZydQ3Hbbbc1aa61l3nvvvfCXzCKDRGQcZdmKBz/WzlGWrRiAC6XwH2XZ8h9l2RKAF8n48ePNKqusEq5pp+NEixgPd911l7npppvMm2++aWd2ZySFkVJcsC644ALrjXLzzTdbY+OJJ54wxxxzjMnNzQ330I7bLyngP/30U7POOuvY5Uwjg0RkHCZ+Uq+s/4woKleWrRiAi4jwn6qqqrAkFgfPT/rWnPfxS4v0eSHYx/xgdETZ0oSLpFjQ7PBjxoyxIxuMorzzzjtm5syZNibwlVdesW5dGDYFBQVmgw02MLfccou58cYbre7VWXwLsSn/93//Z1ZbbbWfuWtlEhkkIuMsqJIJP2hqazUaH/EfjVbGA7Wri5eXJn9nLv70lUX6vDxlbLi3zqGnWnIUjHausMIK5v333w/XtJM6aSajGc8//7z5z3/+Y0dHcN0CDJLbbrvNxiLfcMMN5sUXXzSbbbaZufvuu836669vLr744l8ErmMAXXPNNdYY2X///cO1mUdPvsg4VDYFtPvPggLahR8oEDoe9O3bNywJX8EYqaioCJdEb4Xn4LzzzjP33XefzbL1zTffmFtvvdU89thj4RbtxmtjY6P97ZlnnjGvv/66Xc+oCYYMehYjbmxHfMkPP/xgJ8HFqOmYy+qf//ynmTJlio1VId5kSY3SKctWBIl7lq3Zs2fba5NREm0WlE1klbIB5ssFpP5Vlq3oQ2/ZkhqiFz0HioRSOC8+Tnv/GXPtmLfCpe5xzMobmnPW2jpc+iUokLwfZVxGh45Ztm5683n7PT+S/LUluxztKsnPN79bZR1TnJcfrumcyZMnmw8++MAGqpMJce2117YxIawjzuP777+3xgfPCx+2ycvLM//73/+sa/zw4cPNr3/9axtbwge3rBVXXNFm60qNR/nvf/9rj+FYY4017HYOnstMZNmSQRJB4m6Q4LNOYLsMkmizIINk5bL+5quqGTJIPEeKbDxQ+ubFiwyS3klHg2RhQK1GlnFxh82UQSKXLZFxsPDlt+4/k+qr5bIVA5TVJx5Ijv5DrzWddcJvFAvUPXTHRMZRlq14MLywTFm2YgCZWIT/KMuW/9ATXVNTEy4JX2GERDpO+sggERmHlHOp/ovCT2pampRlKwZ0zEkv/EQusP7De1FyjAfScdJHBonIOOTFlsuW/0ypr/5Ftg7hH3L1iQdxjTnsTchlKx7IZat76I6JjENKObI9CL9ZtqSvXLZiAJNpCf8hGFr4DS5bmqjUfxanyxb7JrVvHJFBIjIOoyMazvSfhtYWuWzFgM5m7RX+ITn6D+9FyTHafDL2m4X7fP9t5+uDz5gfx5nmBXTKYtA88sgj5k9/+pOdrPCUU04xX375pV3/8MMPh1v1DE899ZQ9DjO+n3POOTbOd0mgtL8RJO5pfxsaGqyfrNy2os2C0v72zys0Mxrrbc71rlDa3+jDy0duIv4jOS5eMpH2F3WM+SDIRCmiQce0v1nb/tp+LwojBw42r1xygxnev+v5n+666y577MMPP9zW6xkzZlhjhNS7F110kRk9erRNgPDJJ5/Y9cxLgjs88H/fffedTQO+yiqrWF3riy++sJMfci1LL730z1zKGJVjG4zh22+/3aad3mOPPcJflfZXxBgaXB5w4TeDCkpMQgNd3rOkZuUVPcuS6tUUPQfvxbq6unBJ9FaYgR3DYKeddjL9+vWzhgaTHI4aNSrcot14ffTRR82HH35o3nrrLXPUUUdZt83x48ebCy64wIwdO9aOpGCEPPDAA+aKK66w6xgN6dhWlJeX2+cOowVDBoNlSSCDRGQcZhJVwJf/zGysk8tWDFBvbDxwvaPCX3gv5ufPf/ZuEX8wGJqbm60x0hW49+28885mhRVWMCNHjrR6FcYEoyaDBg0yO+64oznzzDPNkCFD7IjJqquuavbee29z7LHHdprIhI4pZoZnpCTV8MkkctmKIL3BZYtUozJKos2CXLb65hWYWY0N83XZ2rHvUmGp+1xy2AmmsqQ0XBI9DT1jMkr8R3JcvGTKZYv3o4zL6LAkXLZ4BnbbbTdz4YUXmtVWWy1c2w4JgXDZIqbk73//u6moqLAGxKuvvmrdrHDdIvbkpZdess8R29Eu3Hbbbda9a9lll7VGSVdtxfPPP29ee+01c/bZZ4dr5LIlYgwuW4srA4XIHEMKShfosvXv555Y5E9tQ324N7E40IR68UAT6vkPip9c7wSjZAcccIB56KGH5ulKuHF98803tgwYJnRCHH/88Wa77bYz06ZNs+t5hjBMrrrqKlNZWWlefvllO5qCEXL11VfbeJFZs2bZbR2p7wD2s6QMYhkkIuPIZSsezLIB7cJ31KseD9Sr7j8ojnLZijbLDBm2yJ9RAweb7AUk9dlvv/3M4MGDzamnnmpjQk466SRrTPCMMCpCYiDctfj9vPPOsy5ZPDukBD799NPNxRdfbA2PzTff3Nx6663mrLPOsiMreN5gqKRy6aWX2uxa5557rvn444/N0UcfHf6SWeSyFUHi7rJFDxBGidIbRpsFuWyNKCwzE+qrTNt8mpBZH3wRlrrPuDsenW82ErFo8JIjqFH4zdy5c01ZWVm49Eue//AdM/qWa8Ol7rHGMsuZG44fbZWi3kYmXLbcCIkmK40OHV22Js2cbr/nB2/EZCDLrjpeidPoV1pushbQMcvz4OZto+PIdTowGop+yHrqPYYIdRKdig+/E4PCNuhabMd+2F9paak1ZlJpamqyzx2/8+zhUp8K6zPhsiWDJILE3SAhEwTX1rFSiGixIINktfKB5ou500yrDBKvIQsLQZDCb3C1GDBgQLj0S+5/7QWzz7mjw6XusfEqvzIvX3KDDJJusiCDBPcc3o/zC2YWmaWjQbIwoFYjy7h0umbKIJHfjMg4WPqag8R/JtTNNW3qzvCe+fWqC39Qr7r/oPTGtSOyN4HBLrf09NEdExmH4UMNzPlPUVZu0PCGC8JbGK4X/oOLhvAb3ouSo/9Iv+keMkhExkEBYghQ+E1FXoGRPeI/ZL0T/kOqUOE3KLJkUxL+Eycdh2vJhJumDBKRceSyFQ8m1RHQHi4IbyHIUfiPXLb8Ry5b0YMA75kzZ9rg8YX9kEaXwPLOfvPtQ9KTiRMnZuS5lEEiMg49eZqHxH/65xcvcB4SEX0070E8kBz9hxES5pYQ0WHgwIE2AQ+eHQv7YdQZZb6z33z74GLPPchEx5WybEUQZdkSUUBZtnoHyrIVD5Rla/GiLFtiYSEOiDS7Hef7EPNHIyQi42Bpaw4S//mqasZ8jRHhB1J+4kHfvn3DkvAVXJmZ9E74DfqNshemjwwSkXEYkpbLlv8MKyw1CaXZ8h78nYX/SI7+Q/AwPevCb9Bv5EKZPjJIRMZR2t94UJSdqyxbMQA/YeE/ShfrP7wXeT8Kv5Ecu4diSCJI3GNIUIAY0tTEQdFmQTEkZTl5pqq50cyvAVEMSfQhyUR+fn64JHqa6qCOjLj3/HCp+8w+4Kyw1DkLkqNiSBaNTMSQoI7xfszLywvXCB9hpAuDhAxdYuGRRigyDkOZctnynxFF5XLZigGkdRT+I5ct/5HLVjxAvyHtr0gPGSRCiG7RpsHVWNAbe7vjiOToP8hQcowHkmP6yCBZBBiSw2+XT8dZOd1vHUcCnG9hZ7/1FsgiopS//rOglL/CD8gxL/ynf//+YUn4Cm7MypbmP+g3ypaWPjJIuskzzzxjdt55Z3PiiSeaQw891JxyyinhL8bcc8895g9/+IM5+eST7feXX35p12O0EBuy9957m5NOOskccMAB5quvvrK/9SaYMEgBmP6zQmk/uWzFgOnTp4cl4TMzZswIS8JX0BFmzZoVLglfodNZrrDpo6D2boIxgTGy1lpr2eXtt9/e3HjjjXaYbtNNNzUPP/ywWW211cx1111nHn/8cfPoo4/aF/8ee+xhHnjgATsR2SOPPGKeeuopc8MNN9h9ODQxoogCCwpqX6VsgPmyaromRlyMnP3h82Gp+/xtzS3DUudMnTpVoySLkUwFtWtixMVLJoLaMUh4P2qUxG/ocCWGRKMk6aERkm5Cg/H222/bAO3vvvvOKtfl5eXmvffes98rrrii3W7LLbc0EydONJMnT7Yv/hEjRsybFXmVVVYxH330kWlsbLTLvYWioiI7AZTwmwl1cxVHshhJBn+Xf/76In8WhCbwigdMOCv8BkMvrh2RvQn0G/QckR5ZZwWEZZEGK620kjn//PPNpZdeam6//XYzevRoOyLy+uuvm0mTJtkRFCDtGyMnjHpgmEyZMsVsu+229jfSNN57773W9aukpMSug8suu8zu47XXXrPDfhg4PNwzZ860mVRImcvwPBMMFhYW2pEXDCMqAesxcDguPWYcg0EwhoGJWaHMfiizHfvHb7W+vt72zFBmHZk+SD2IexUfd0ysfs6FMsd06/l/tudcOCYNK8chhSH7ZBsXN8N9YB1lNzzNvtxxOAbnQJnf3bm48+LaOA7bFRQU2H1zL1LPBQORsptjgXPh+O766Yni+rlm4H/YP/eQe+zusytzTP7PHZ/z4pip58I5ckz2y/92vBdcL8d1Zc6H4/O7Oz5ldy+4Br7dufA7xyG1pzsm27A/jsPxkTnr3b3gGFwT23NeziWA+8Bvrsy1dLz/9374phlWWGaGFJSYuc2NZpniCjOksNQ0traYZUoqzaplA8y42jlmpbL+ZlBBsWkI1i9f2s+UZOeZmpZGO4JS3mxMa3DMlQYNM3nZOYHc+5iVBw83BTl5piS/wCzbf7D9vbKo2Cw3YIg9lxEV/c2Iyv6mqr7OjOo70Oy87kamJHjmuFecm3v+kIW7Tu4fdYHr51p4vrgv87t+htUpsy71+rn/7lngd47Jvik7WXBMtuus/iEL91xwTOBcOJ57/ijzbDr5u2eRMtfV/szlmQfHvG+GJwpMg2k1K2QVm4GJPDM72WyWzSoyg4JyfbLNrBis75fINdXJFrtNRZ8cExzJlkv7ZJsDl19n3rPgrp/nz10/1wp8c9/c9XOdfHMu7ll0ddE9f5S5Hu4f27DelTkm18g1ubK7fs4j9flz18/x2S/H4n7+dC/a6xzL7JttOU/qgnvm2YbjsK/Uc3HPQur959gssx9AZq7Mfjk+++PbnYu7ftoc9kGZe0TZPX90OnEu7hmx7V/wvy9+/akpS2SbhOljZZcV3JO8YIlyTlAuD2Q2MlFomkyb6R/IdVRQDlprMyyQ/dBEvpX5wUNXnff8cUyuzT1/nAsfzoNr4b5wLmzD/Wf7T8Z+Y17//COzyuARpigv3xQGdZA6h+lbVlBolg/KjHsMqehrRlUOMDWNDWZ4RT+zdL+BpjG4XysOGmpWCOruLr/Zwu4vtS5wHO4L58L9c/c8VRaUuf/IEfnzDLINZdf+8X/sy5X55rq4HsrIwD1brl5S5pjuXNhX6rPgrh+Zu2cR2bOMzDmn1Lronj/2x7HdMT8d/72ZE1xzVVDPlk6017/aQEorZZXYejk3kJGrf022XpaY8kDmwVvHLB+sL+yTZUYUlZnVc8vt8d37L/X5p4yOwPnwzHGP3X12z5+rc5RdveCepbb/7vrdfrj/PBfA/3Jsd3y+3fWn3v/Ue8H++N2dC2VX/9g323GP2HdX7yKu2d1/jueODyy7e8Hx3T13959r4JzYH88Z26bWBWTOe6Gz+sd+OBe24fju+jmWK3P/3TPHdu5ZcPc89flzx+T6MR7d9btjcv0c88cff7T7dnWB541yx+vnPFLbQtf+sD/2y3G5fvbBsnsXcV4ch/3xP64t4P6xfeq5uPoH7AdZUO/c9Tv5c838j3sWOA/us2sLXZn9cQz23ZPIZaubnHnmmWa55ZYzG2+8sX04zj33XHPVVVfZ2JIHH3zQPPHEE3Y7hLjhhhvadePHjzePPfaYufLKK+1vEyZMMLvvvrt150p1mdh6663t/ql4jMTwG2UeFMTFA8EDBKynAoFbz4PEg+IaYx5sHngeIH5zZeBhZFv3gqDMw8pxaFTYlt9Sj0nlZN+p58Jx2J5zTD0mx6PszosPDzsGGOs5Ft8cwx2H8+CTekz2Tdmdl6tcnIs7JufuzoX/ZRuOx7W6c3Fljgnu+OzXXT/f7lxcxU09pjsXcMcBt03qNc/v/vMb++94/1OPz7buPruyu2ZgvTsOx++4PvVcKPNx1wzzu//LnXusyc8KlKg+CVPV3GCKA0MDRaqmpckUBcbFqKIK88mcKaY0J98qMqwvzg7uWfAyplwerJ/16demrin437wCq9Q0BUYLhkhjS3gtObmmNlB8OK8CysG2GC7ZieAFVFcbKE555t2r/m1GDR467553Vhc6Xj/3kfvFfik7uaReP//DNl1dv9sHdPbMu/WdyYIy21Nm/+wHmfNhm1T5p8qCY/LtjrPUf843OcHdrU62mpLAuIA5geJDmeHtmkA5KgkUIEZTUJQwQEivUR9sXxyUgyfJfLfPqfaYXDvHdefijk8bVVlZOe+auQ+UOT7bunNx5Y51wV2nu+bU9RyT65vf8fmd/brj8805pJbZH/voeC4Luv+p6zkmH3cuqc8CuHLqs8A6dy6U3THZtzsXd0zWd9YWN/ZJmjXv/6eVRWNQNwoDuWBgtgUyKzTZpjEoU39yTZapDWSYE9S33EC6dYFZGdS44C9QjAKZT9jjlJ8dE1z7z3qUFdpVzsXVBcpcE/froTdeModefq4pzQ8Mn6Aetra2mYJgX9TPPsFfQWAA1zUFBkRQ53OC+zS3vtZ2HOQG/1/dUB/U4Xyz3gqrmMfOvfwX1w+dyYLr5965ZyFV/iy7MnR8/lLvOdfDtk4uqcfsTBaUWZ96/RyPMttwTH5bWPlTPvf9582/v3k/qGfNpiisf3QClAb1D5CRq391Yb3EqKyzdTe47qB8wHJrmzNW2+xn188xOX+umXUooIx2dTy+K7u6Ba5egLtmcNuwP3f/U+/Fwt5/vt0xOY67z/wf5a7qH9t3XM9x+FDm2HwW9v6nPgvp1r9FuX53TK6Hbd15sW/o6l3EPtFzkKM7JsejnM71cx58Uo/Z2fW79a7Oc+7uXNjGPQucV09dP9/uf3sKGSTdZKuttrJGB0KBE044way33np2NOPUU0+1rlsIdMyYMWa//faz29LQ/O1vfzP333+//R8C2g888EDz1ltv2YfDEfcYEh5qKgofEV0WFEOSExgNzW3zzxSnGJLug5FReefZ4VL3WVDsAS+fnn6xiJ/IVAzJguSoGJJFIxMxJMD7MVUfEP6BWs1HckwP3a1ugjX6yiuv2DJDZ1988YVZffXVzbrrrmsfxDfffNO+IB566CGzxhpr2FEOAg4xSjBA2IbRlN/+9re97qGlRxbLW/jNCiV97YiJ8BuG9oX/4H4h/AZjhJ514TfoN+g5Ij1kkHSTo48+2pxxxhk2uxaB67hlrbrqqjYX/PXXX29HQhjpeOedd2xMCD1X/fr1M8cff7xNB7zNNtuYF154wRx77LHhHnsP6jWIB81JnE6E76g+xgPJMR5Ijv7DCKLkmD66Y92EwHRS9hI3QhpfjBMHxgnrLr/8cnP33XdbNy7H7373OxszgtFy1113mcGDB4e/9B4YXZKLiP9Ma6gxcvj0H2X1iQfK6uM/KLLEJQi/wRhBzxHpIYNkESDH9DLLLGOGDx/+CwWb0RB+6+wlQaD60ksvHUlF4Kav3jEnvv34In3env5juLfOIQsE7mzCb8jAlZDHlvfItSAe4Dos/AaXLZITCL9BvyHzlUgPGSTiZzw36Rtz6zfvLdLn67nz90kn2F8B7f5DsK4GSPyHDCrCf1yCFeEvvBclR/9Bjug5Ij1kkIiMgwIk/0r/mdFYZ5MzCL8hf73wH8nRf1Bk5erjP3jMSI7pI61QZByGpOWy5T9LFVeYhEa6vEdZfeIBGRyF3+CyxeRzwm/IsiUXyvSRQSIyDpP/yGXLf2pbmuSyFQPkIhIP5CLiP3L1iQeSY/eQQSIyjgySeFBrZ1sPF4S3yCCJB1KA/EeKbDxAjm4GdrHwyCARGaehocEOTQu/GZBfpCxbMUBZfeIB2QuF3/BelBz9BznW19eHS2JhkUEiMg7BXgpq95/pDbUaIYkBmr8iHiio3X94L2oeEv/RPCTdQ1qhEKJbME+77BH/kftkPJAc44Hk6D/IUHJMHxkkIuPIZSseDMwvlstWDJDLVjzQRGz+I5eteEAWUblspY8MEpFx5LIVD2bgshWWhb/IZSseyGXLf+SyFQ8kx+4hrVBkHHoPNKGe/+RnKYtIHCBnvvAfydF/eC9qji7/QY6qj+kjg0RknOZm0sXKIPGd4pw8I48t/2lsbAxLwmeamprCkvAV3ouSo/8gR/QckR4ySETGwUUkKysrXBK+8kPtHNMmw9J7ysvLw5LwmbKysrAkfAVXn5KSknBJ+Ar6TXFxcbgkFhYZJCLj0HOgoHb/Kc/JVyaRGECSCeE/kqP/aIQkHkiO3UMGicg4VFS5bPlPWW5gkIRl4S9SZOOBXO/8h/ei5Og/dLjKIEkfGSQi48hlKx5MqJtr2mRXeo9cfeJBaWlpWBK+gsuWXH38B/1G2QvTRwaJyDjky1cmEf8ZUlCqeUhiQFVVVVgSPiM5+g8jJJpPxn/QbzSfTPrIIBGRZNzUyea1zz5cpM+3kyaEexOLg4TiR2KB3CeFiAbURdXHeCA5po8MEpFxyOqTk5MTLnXOzU//12x28hGL9Ln84XvCvYnFwRdzp5lWNbreM2DAgLAkfKZfv35hSfgKrj6VlZXhkvAV9BtlL0wfGSQi41RXV2vSoBiwVHGFRkliwOzZs8OS8Jk5c+aEJeErBEPL9c5/0G9qamrCJbGwyCARGUcztceD/KwcZdmKAZrAKx6ok8d/eC9Kjv6DHBUnmz4ySETGUZatePCjJkaMBXItiAfKluY/ZNlStjT/UZat7iGDRGQcZdmKByOLyuWyFQPk6hMP5s6dG5aEr8hlKx6g38hlK31kkIiMo9m944FGR+KB6mM8kBz9BxlKjvFAckwfGSQi4+BasKAsWyL6fFk1Q1m2YkD//v3DkvCZvn37hiXhK7hsVVRUhEvCV5Rlq3vIIBEZB9cCBdL6z/IlfU2WeoG8Z8aMGWFJ+MysWbPCkvAVXLbkQuk/6DdyoUwfGSRCiO4hW0QIIYQQPYAMEpFxCgsLlWUrBkyqq1IcSQxQVp94UFxcHJaErxB3oOxM0eeb6ZPN45+/1+Xn2a8/MW9PHNvpb+4zq05B7x3pk9SEEJFjl112MXfeeecSecHs9dJd5rmJ34RL3ePK9Xcyv192rXDplzARG9c2vziSM/59vTnvnlvDpe5x5I57mKuP/ku4JNKl/+iDwlLnrFY+cIGztc/64Iuw1H3G3fGoGd5/YLjUe0gGf5V3nh0udZ/ZB5wVljpnypQpZtCgQeGS6GmqmxvNiHvPD5e6z4LkOG3atPnOun//ay+Yfc4dHS51j41X+ZV5+ZIbemXA7mnvP2OuHfNWuNQ9EjPnmsTUrl2ychJZZuniCvNVVddulHussYG5bq/DwiWxJPjnS4+Z8597KFz6JYVZOWZQQbEZW9P1pLNPHD7arDdyuXBJgEZIRMYhcE8ZKPynsbUlUJmF72RnZ4cl4TMadfYf+odpV4XftAVvxqY2TW2QLjJIRMZhdEQvT//5sW6uXLZigLLBxANNjOg/rck2M7m+OlwSvoIxMq2hNlwSC4sMEpFxmPippUW9QL6zbHGlsmzFgJkzZ4Yl4TPKsuU/2YmEnXBW+E1eItsMLVRsXrrIIBEZh9ERuWz5T0ObXLbigFy24oHk6D8MODfK1cd7iP9rlhzTRgaJyDh5eXk2jkT4zazGevsCFX5TUFAQloTPSI7+Q+zB3OaGcEn4Sktbm6lqbgyXxMIirVBknLq6OtPaqt4D32FIOqGBLu/BhVL4T3W1Yg98J6tPwgzMV/pm38lNZJl+eYXhklhYZJCIjEO6X7ls+Q89eRog8Z/8/PywJHyGkWfhNyQJIU208JuWZJupbWkKl8TCIoNEZJzc3Fy5bMWAuU2BQSKfLe+RQRIPZJD4D7EH1VJkvYe5uWpbmsMlsbBIKxQZp7a2Vi5bMWBEUblJaKTLe+bM6XqiNuEPcr3zH1y2hhSUhEvCV/ISWWZAvmbcTxcZJCLjyGUrHsxtbpTLVgzQCEk80AiJ/8hlKx60u2xphCRdZJCIjKOZ2uNBs0a5YoEmKY0HcoONA0nTHCizwm/oqGtJ6v2YLmrBRMZpbGw0bW1qdH2nX36hkVnpP7hQCv+pr68PS8JXEn0SpjJX6Zt9JyeQY1mORp7TRQaJyDi4iKg3z3+m1teYNvlseU9xsdKMxoGiIvms+05rss3MaKwLl4SvNCdbzewmdRCki7RC0eOc8NCtpv/og7r8rHHhSWbE3w7v9Df3ueylx8K9iaiSSPQx8rzzH2VKiweSo//QnCY07hwDeDdKjukig0RknLLcfJOtERLv6Z9XpFdnDJDLVjxgwlnhN9ZlK08uW76Dy1a5XLbSRlqhyDgMZTa3KeDLd6Y2yGUrDshlKx7IZct/rMtWgzoIfAeXrVly2UobGSQi4xRm5dh868JvSrPz5LIVA0gyIfynqUkT6vkO7lpF2bnhkvAV9JuiQM8R6SGtUGScvKxsTagXAwqyc+SyFQOam5UvPw5Ijv5D3AHtqvAbDEv0HJEeMkhExplSX20aW1vCJeEr39fMshN5Cb+prKwMS8JnysvLw5LwlZa2NjO+bm64JHylsa3FTA70HJEeMkhExinNIahdk7H5Tj+C2jXS5T0Kao8HCmr3HzwHKnIU1O472ZqHpFvIIBEZpzCbGBIpsr5TkpMnl60YoBiSeKAYEv/BICnOUQyJ7xBDgp4j0kMGicg40xpqTGOrsmz5zg+1c+SyFQPk6hMPysrKwpLwFbJsTayrCpeErzS2tdoslCI9ZJCIjDMgv9jkZclly3dGFpUrOUEMmDNnTlgSPjN3rmIPfIee9aGFpeGS8JW8RJYZGOg5Ij1kkAghhBBCCCGWGDJIRMYZXzvX1Lcoy5bvfFk13bTKZct7+vfvH5aEz/Tt2zcsCV9paWs131XPCpeEr9S3NpsfAz1HpIcMEpFxBhUUm3y5bHnPqKIKuWzFgNmzZ4cl4TNyvfMfXLaGyWXLe5iDBD1HpIcMEpFxSInXR/mZvCc3kSUpxoBWJZiIBW1tbWFJ+Ar9OzlKie896DfoOSI9dMdExpnWUGsnDhJ+86OybMUCZdmKB6Wl6ln3nZagPZ2kCfW8pynQb9BzRHrIIFkEmpubzZQpU8z48ePN9OnTw7XtPVXTpk2z6zu6Q9Ab6X6bNWuWSfZChW5gAVm2ssMl4SujiuWyFQfkshUPlGXLf+hVl8uW/+Ql5LLVHWSQdBNe4kcddZT5xz/+Yf7973+ba665JvzFmDvvvNOccMIJ5qabbjKHHnqo+d///mfXY6jcfPPN5vDDDzc33HCDOeSQQ8wHH3xgf+tN2F51dax7jwLa44Fm248HkmMcSAbvR7ne+Q5vRnkPpI8Mkm5y9913mwEDBpirr77anH766eass86y6xkxOeecc8wpp5xi/v73v5vdd9/djB492s6GzCjKXXfdZa688kpryBx99NHmkksusf/Xm2Dip/pWuWz5zrfVM2WUxIB+/fqFJeEzlZWVYUn4SktbmxlXq+QEvtMQ6DcT6jXBZbrIIOkmr7zyitlll12s4XHiiSeajz76yK7/8MMPTUFBgVlppZXs8uabb24NkQkTJlgXLVJsDh8+3P627LLLmu+++67XDbUPLSwx+XLZ8p5lSypNlnplvWfmzJlhSfgM7xfhN9mJhJ1wVvgNWUSHFsj1Ll2yznJd+yItLr/8cvPUU0+ZffbZx1RUVJjzzjvPjoZgmHz55ZfWHQswThhFwXghLeM333xjdtxxR/sboyYPPPCA2XrrrX/Wu3XZZZeZSZMmmddee83+D0GnRUVFVnGoqqoy2dnZZsaMGaaurs4UFhZag6e2ttZkBZWA9ew3NzfXxqo0NDTYOBVeVsSvUGY/lNmO/SeCRrC+vt66oT018WuT09hshiYKzNxksxkRfA8PPvWm1ayQVWwGJvLMjGTTvHJjss2WKxM5ptq0mJUoNxmTbGwyy5X2NUVZucF/Js0Kpf1MQVaOrajLB2WCvogjWbq40makGJBXaIYXlZnG1hYbYzIsp8jUVteY5QcOMcPK+5q59bVm2f6Dbbm2scGsNnSkGVJWaWbV1phVBo8w/UtKTUNzk1l1yEjTt6jE1AflzVf+lfnVqGXtPeWaiflx14/7HNfv/Oe5fu4F95B77O6zK3M/+b/q6mpb5n5y/ylz/2tqakxeXnBvwvvP/7Ke+48rhbvnHNeVOR+Oz+/u+JSRJUZqTk6O/Xbnwu8cJz8/f94x2Yb9cRyOj8xZ754RjsE1sT3nxfFd7BK/uTLXwrH4P/6fY9374ZtmWGGZGVJQYuY2N5pliivMkMJSK6NlAmNkcLD+h9q5ZqWy/tZfll4hZFuSnWdqWhrNKmUDTHmzMa3BMVcaNMzkZecEz1ofs/Lg4aYgJ8+U5BdYmfJ7ZVGxWW7AEHsuIyr6mxGV/U1VfZ0Z1Xeg2XndjUxJ8Pxzrzg36gLXhizcdXL/qAtcP9fCM819md/1t7S02DLrUq+f+++eBX7nmOybspMFx2S7zuofsnDPBccEzoXjueePclNT0zz5u2eRMtfV/szlmQfHvG/rX0NK/Zsd1Mtls4rMoKBcH9S/FYP1/RK5pjrZYrep6JMT1MSgzgXl0j7Z5sDl15n3LLjr5/lz18+xOS+umfvmrp/r5Jtzcc8i58Zz5p4/ylwP949tWO/KHJNr5Jpc2V0/55H6/Lnr5/jsl2NxP3+6F+11jmX2zbacJ3XBPfNsw3HYV+q5uGch9f5zbJbZDyAzV2a/HJ/98e3OxV0/bTr7oMw9ouyev6lTp9pzcc8I15wI/vfFrz81ZYlsQ35BZIchnxcsUc4JyuWBzEYmCk2TaTP9A7mOCsq0m8MC2Q9N5FuZHzx01XnPH8fk2tzzx7kgU86da+G+cC5sw/1n+0/GfmNe//wj214W5eWbwqAOUudwMCkrKDTLB2W6F4ZU9DWjKgeYmqCdHV7Rzyzdb6BpDO7XioOGmhWCurvLb7aw+0utCxyH+8K5cA7unqfKwj1nyBH5c75sQ9m1f/wf+3Jlvrk2rocyMnDPlquXlDmmOxf2lfosuOtH5u5ZRPYsI3POKbUuuueP/XFsd8xPx39v5gTXXBXUs6UT7fWvNpDSSlkltl7yvnT1r8nWyxJTHsg8eOuY5YP1hX2yTFZzm1kukG1BsD43+NCO8kyUBrIgJo/8TCMLy01Zbr5pCu7P0KJSG1NCm8v7kTZ3ZP+BZs2+Q+25uXrBPUtt/931c12u/eO5AO4F954P/8u3u/7U+596L9gfvzuZU3b1j32zHfeIfXf1LuKeu/vP8dzxgWXKyILju3vu7j/XwDmxP54ztk2tC8ic90Jn9Y/9cC5sw/Hd9bu2gDLPiXvm2M49Cxy74/PHvr8YN9ZMnT3TTG+sNSsG7zzef8iI919FILuqliazWvlA2/HaGjwLy5X0NYWB/tOCvhRsU5ydazZZeiVT0NbHnkdqW+jaH47DtXBcrp9zZdm9izgvVxf4H9cWcP/YnvXIgm1c/QP2gyyod+76nfy5ZtcWci84D9f+ppbZH8dg3z1Jn+AGyOeiG2ywwQbWTWubbbaxy8cff7xZY4017IN77bXXWmMCeAhYf//999uH6V//+pf9wOTJk81uu+1m3b+WWmopuw622247c8EFF9gHjMwpGCRUcB4axMVD4BpXHg7WAw8w63mQKLOebXhweAD5ZtmVgYeRbdkv5d+/fr95c8r3tpGsTbaa/D4JQ3LX+qBcEDSoUBM0yDSuGBIN4fpk8FcXVDa7fkrwwM+uCipjjlU2m9qCbQJllEmfcPEpDypsTWAwUDkxSpqCipwIjkPvUH1Ls8kJvpunzTazJ0wy+Tm5NnCal2NBWK5rarQvVKhuCBqioMxTjEFSFNyn1rakLR+94+7mwkOPs/eDa+bblbu6fspUVD7cZ9a5Mv/n7j9loOzuv5MLx2D/Tkbp3P+Ox+/qmOw73XPpeP2p58K+Ol7zUuccHbw021M017U2BwZloFAFckJGNLQ0qlMbak1RIFv2xXrkTAPMxJfFgbxmffylVWYKeE6DdTwDhYGi3cwxgmPmBdeL8ch+KTcE2+YE55MVHBeZ5wf7+/j6u83IQUPm3Yv51QWngHBNbN+d6+fbyYJvfmPfbOu2YX/gzgXY3p0L23Ssfx3Phd86k787Znawj+H3nGuyO9Q/6mVBcL9+Xv9MUP+CexvWRToKWN8WlH/c97T5Xj8fro9rSz0XroHfWKbszstdG/B/7l6kXr8rd7zmzo5PGdz1cx7uXFy547lQhtRzoeyOw/+6++/OhePwm9umq/ufekzWuXOhnHqcjufinj9IPRdktMr9l1hZNAf/kxfIDoUVmVFuDsrBqQRybt82OEtrpCBDvl1bPGXv0fPOi31z/hyT63Tn7+4r23R8/h564yVz0KV/T6l/Qfsb1C/qXLDZvHJ2sD1tMR0/ucE66iNtLp0Iv15xFfPU+Vf97PrdubgyuHueKgvKfJzM+R9Xhs5kwTfLXdW/rp4/d/2px+SbY7nzYjt3z8AdszP5U/77+8+ZW75+19Yz3ovUP+oldQ6QUWf1z5WDp9e0zZxrCmfWzHsXuvefPedEcG7B+pKgXW0IvhuCNpd1zE1C25obnCdH3WG1dcw/d/7DL54/d82u7K7TXTPHoJzO/U+9F2zb2THZt1vf8f6nbrMw958y++p4/zs+C50ds6v6x/92rAt8L8z1px6Tbd15XfXyE+bylx83NYHhURTIC1cj3NB5//FewzipzCswtYHc6HxFF8IdD12oMNgGveieg040aw9d6hfn0tn1u+uBrq4/dRvO3a13Ze4Fn+5cf2fnwu/uf3sKGSTdZI899rCxIxgbcNppp1l3rDXXXNMceeSR5p133jHFxcXm22+/tds+/vjj1vIk2P2xxx6zDwOjJQcccIB59dVXrWLjYDSFwHj+P9Ps9dJd5rmJ34RL3SMxaaZJzKkJl37JUsUVgSJbY+qCytoV9ZOmmfopM8Kl7nHkjnuYq4/+S7gk0qX/6IPCUufQA/TF3GnzjSOZ9cEXYan7jLvjUTO8/8BwqfeAYlN559nhUveZfcD8B8GJexs0aFC4JHqa6uZGM+Le88Ol7rMgOdILTFxjV9z/2gtmn3NHh0vdY+NVfmVevuQG+/7qbZz2/jPm2jFvhUvdIxEYJImpXceIYIAsHbwfv6rq+t23xxobmOv2OixcEkuCf770mDn/uYfCpV/CaAijJmNrus5g+MTho816I5cLlwQohqSbbLbZZtZtC4uc4bJ3333XumKtvfbadujw5Zdfthblvffea1ZffXUzePBga7Cw7sknn7T74JsYk1RjpDdAL4EyUPgPPXiSov/Q0yX8R3L0H/qHcX0VfsPIGHqOSA8ZJN2EkQ0Mib333tuOgOB6tcwyy9hRjVtvvdV+9t13X/PVV19Zw4WhrbKyMjuqQspftn///fftiElvY2ZjnSprDJhUX2NfoMJvNKFePCgpKQlLwlcYbdaEev6DfjMj0HNEesgg6SbEdRArwlwjuFcddthPQ6irrrqque2228xVV11lbrzxxp8FrG+00UY2ZuS6666zhklvdJUgME9ZtvwH1ztNjOg/LrBU+A2BqMJvshN9zHBNjOg9TIyIniPSQwbJIsCoB25Yffv2tcFCqdBbNXDgQBvk3hFGUfiNbBG9EYak5bLlP3UtTXLZigEESQr/IdhU+A2vRc3R5T82mYHkmDYySETGqQ0UWTJsCb+Z20xK6XBBeEtvi2GLK5Kj/6DIkrlJ+A1ZtNBzRHrIIBEZp29eoclN9Gy6OJF5hhSUmoQ8tryHfPbCf0grL/yGFL8D8ovCJeEr6DfoOSI9ZJCIjFPb3GR7EITfzGlqkMtWDOjMrVT4h0ZI/AdX5qrm9gkMhb/gAaKRrvSRQSIyTkNby3znrhB+wJC0xOg/iiGJB5Kj/zD3EJPKisXHv7/9wPz+lXsX6fPAuE/DvXUOhqXSN6ePDBKRcazLVg/P8Ckyz9BCuWzFgaqqqrAkfEaud/6Dy9bAgsxPiNyb+Gz2FPP4+DGL9Plq7vRwb52Dy1Y/uWyljQwSkXGYubhFLlveM6upXi5bMaC3ZvuLG3K98x961nGFFX6DyxZ6jkgPGSRCiO4ha0QIIXoQNapxQZJMHxkkIuOU5OSZ7A7ztgj/qMwrMPLY8p/6+vqwJHymoUE9676T6JMw5bka6fKd7ECOpYGeI9JDWqHIOLMa601zW2u4JHxlcn21aVM3kPcwiavwHybcFX7Tmmwz0xpqwyXhK02BfjMz0HNEesggERknJ5EwfdS37j15WVmmj8ToPa2t6hyIA5Kj/9Ccao4u/0kEL0b0HJEeumMi48hlKx5U5hbKrIwBdXV1YUn4jFzv/EcuW/FALlvdQ1qhyDgzG+tMk3rzvGeSXLZiQWlpaVgSPiPXO//BZWtqg2bc9x1ctmYEeo5IDxkkIuPQc6DhTP/pm1sgl60YoBGSeCA5+g/OzOU5GiHxHTxAyjRCkjbSCjvQ1NRk2jRHxmIlJ0HsgTRZ38nLypbLVgxo0czQsUAxJP7De5F2VfgNhiV6jkiPXm+QfP755+aZZ56x5VdeecWsuuqqZuuttzZz5syx60TPQ3amxlYpQb4ztmaWnchL+E1lZWVYEj5TXl4eloSvMGHw+Nq54ZLwlYa2FqvniPTo9QbJs88+a2cqZrj7sssuM+edd57ZYIMNzHXXXRduIXqaitwC9R7EgIH5xRrpigE1NfJZjwO1tUoX6ztZQXvaN68wXBK+ktMny5QHeo5Ij15vkNCI5+XlmZkzZ5rs7Gyzxx57mO233958++234Raip8kPjBHS4gm/KczOkctWDGhubg5LwmckR//htVggly3vQb/JlxzTptcbJKuttpq5++67zS233GLWWWcdu27cuHFmwIABtix6nikNtXLZigHjaubIZSsGyNUnHkiO/tPSljQT6qvCJeErTW0tZkq9Rp7TpdcbJMSLDBs2zFRXV5tDDz3UJAMF68svvzRbbrlluIXoaQYVFCtwLwYsVVyhka4YMHv27LAkfEZxj/5DdqbhhWXhkvCVvES2GRzoOSI9er1BQvzIySefbI444ghrlOATf+aZZ5otttgi3EIIIYQQQgixuOj1BklVVZU1Rogdufrqq+0IydFHH20efPDBcAvR00yom2salGrUe76qmmFa5bLlPf369QtLwmeULc1/Wtpazfc1GrH0nfrWFjM+0HNEevR6g+TJJ580K6+8srn++utNYWGhHSHZcccdzVtvvRVuIXqaQfm4bCnLlu+MkstWLJDLVjyYO1cKkO9k9UmYoYWl4ZLwFfSbQfkl4ZJYWHq9QTJ27Fib5res7Ce/zdLSUuu+JRYP7UqsFFnfIUWlpOg/jAoL/9GEvv7Dq5FJ9YTfIEF11qVPrzdIVlhhBfPee++FS+2pEx966CGzxhprhGtETzOtodZmoRB+M75WWbbiQGpnjPAXydF/yLI1uUGdob7T1NYa6DnKspUuvd4g2Xzzzc0bb7xhTj/9dPP666+b/fff30yYMMH84Q9/CLcQPc2gghJl2YoBSxVXqhcoBshlKx4oy5b/KMtWPGjPsiWXrXTp9QYJgYDXXnut+etf/2pGjx5tM24xJ0lRUVG4hehpbK+6Ota9RwHt8UCz7ccDyTEOJIN2Va53vsObUd4D6dPrDRJ6lWpqasyQIUNscPvQoUNt5i1mbheLh8n11aZBLlveM7ZmlhrdGNC3b9+wJHymoqIiLAlfaWlrM+NrlZzAdxoD/WZSoOeI9Oj1BgnZtXbfffdffM4///xwC9HTMJSZn5DLlu8sLZetWKDOl3gg1zv/sS5bRXLZ8h1ctobIZStter1BgqvW//73P/sh1e/9999v1llnHXPIIYeEW4iepiXZZtrks+U9zW2tkmIMyFIK7lggOfoPA86Mkgi/SQZ/6DkiPXq9QZIKPrjDhw+3kyTedNNN4VrR08xpagiUWVVW3yGLiFLG+k9xcXFYEj7DPFrCb+iom9lYFy4JX0G/mR3oOfPjsMvPM+sff9Aife5/9flwb/FAMSRz5phJkybN+4wbN8689tprJi8vL9xC9DQD8os0MWIMGFFULpetGKDsTPGA2EfhN0yMOEQTI3pPXiLLDAz0nPkxZvw48+5XXyzSZ+qcWeHe4kGvN0iuu+46s8suu8z7MDoyZswYc/zxx4dbiJ6msbVFwdAxoL61WS5bMSAnJycsCZ/JzlZcnu8w4twQtKvCbxjpamxrDZfEwtLrDZJjjz3WPPXUU/M+L7/8srn77rvNoEGDwi1ETzOnWS5bcYAJLuWy5T9y2YoHSlXvP+0uW/XhkvAV4itnN0mO6dLrDRJexqS9dB+9nBc/A/OL5bIVA+SyFQ+UnSkezJ2rdLG+kxW0p8rO5D+5iWwzKNBzRHr0WoNkxx13NDvttFOXn3POOSfcUvQ0dS3NmlQvBlQ3N8plKwYoXi4e5ObmhiXhK21Bg1rb0hQuCV9pS7ZZPUekR681SO644w5z++23d/k58cQTwy1FT9NgY0jksuU7vDhlV/qPFNl4oFgg/yFdbH3wfhR+Q0J8Tf6cPr3WICkvL5/3KSsrMy0tLXbG9urqavupr5f/3+KiMq/A5CTksuU7THCZkMeW99DeCf+pra0NS8JXyLLVfwHZmUT0ye2TZSpzC8IlsbD0+hgSGvGjjz7abLrppmarrbYyW2+9tf2ceeaZ4Raip6lpbtTkTzGAoD0NkPhPQYFenHEgPz8/LAlfIfvk3AXMXyGiD5Mi4tIs0qPXGyTPPPOMGTJkiDnwwAPNRRddZG6++Waz3nrrmf333z/cQvQ0zUFlZWha+A1pDeWy5T+a4TseSI7+w3uxSelivQc5oueI9Oj1BskXX3xhR0QqKytNaWmp2XDDDc0f/vAH8+CDD4ZbiJ6mIlcuW3GALCJy2fIfXFWF/8hly3/kshUPcuSy1S16vUHSv39/09DQYEaNGmVefPFFM336dPPhhx+Gv4rFAUPSctnyn+mNtRrnigGavyIeFBYWhiXhKyR7mdVYFy4JX2F0ZI5c79Km1xokM2fOtJO6ETdSVVVl1llnHfPOO+/Y75tuuskcccQR4Zaip8lOJIw61v2HwD3hP62tchGJA5JjHOgTvB/VrvoO+g16jkiPXnvH7r//fvO73/3O3HXXXTbTFr1LDz/8sHnuueesYbL88suHW4qepig712SpsnpPWW6+DEsP6D/6oPl+drvxAjOgk/WpHxF9GhsVROs7TDRbmqN5gXwnu0/CFAd6jkiPXqsVMgLCSAh+twcffLDZYIMNrJEycuRIU1KimVIXJzMb60yTevO8Z1JdlZ3IS/gNcpQY/UfvLf9pTbaZqQ2K6fIdEhPMkOtd2vTqbmqya11wwQXmjTfeMGeffbb56KOP7AzupAF+9tlnw61ET5OflW2y+qhv3XcKs3ONxOg/yFH4T1OTZvj2nT7BX0GWJrj0HUa60HNEeshvJoDA9h122MGcd9555uSTT7YGCqMlYvEgl614UC6XrVggOcYDuWz5D1kLS3LUQeA7ctnqHr1eK6yrqzNPPvmk+ctf/mJHRx544AEzevRoTYy4GJneUCuXrRgwvm6uXLZiAHKUGP2HtPXCb1qTSTOlXi5bvsMcXdMCPUekR681SGbNmmUuvfRSs/7665vTTz/dDB482Nx3333mxhtvNHvvvbcZPnx4uKXoaeiRzdEIifcMzCuSy1YMQI7CfzQPif+Qf7Kv5q/wHvSbikDPEenRa7XC//znP3Z05KqrrjIvv/yyddUi25ZY/DApYh9pst6Tm5UtV58YIDnGA6X99R/ei9RH4TcYlpr8OX16rUFy1FFHmTPOOMNsuummGurOMFPqq01ja0u4JHzl+5pZpi0pZx/fQY6Sov+oQ81/mDAYF0rhN41tLWZyoOeI9JDfjMg4FbkF6j2IAQPzSzTSFQOQo/CfmhrFHvgO2Sf75WnGfd9Bv6mU613ayCARGSc3qKyaq91/SGsoKfqP5BgP5LLlP/Tv5CXksuU7pG9Wp2v6yCARGWdyQ41paJPLlu98XzNbLlsxADlKiv4jly3/aWlLmgly2fIeXLamaILLtJFBIjLOkIISTRoUA5YpqbQTQAm/QY6Sov/Mnj07LAlfyU4kzIgiGZa+k5/ItnqOSA8ZJEIIIYQQQoglhgwSkXEm1lWZBmXZ8p5vqmfaibyE3yBHSdF/Kisrw5LwlZa2VjOuRiNdvoNL+oRAzxHpIYNEZJxB+cUK3IsBo4rK5bIVA5Cj8J85c+aEJeErWYmEGVqoaQh8Jy+RZQYVFIdLYmGRQbKItLQElvCECaa6+uc5p6uqqsykSZNMfX19uOYn2Hby5Mmd/tYbUG9sPJAc44HkKIQQPYfa1O4hg2QRYZb33XbbzTz66KPhGmM+/fRTc8ABB5jjjjvOHHzwwWbmzJnhL8a89tprZq+99jJHHHGEOeSQQ6xh0tuY3lhrmpRly3sm1M41SblseQ9yFP6jCX79p7UtaSbXKzuT7zS1tZppDbXhklhYZJAsAo2Njebhhx82o0aNmjcpFaMfBx10kDU47r33XrPaaquZE044wY6kMKR+3nnnWUPlv//9r9lggw3MZZddZv+vNzG4oMTkKcuW9yytLFuxADlKiv4jly3/ac+yVRYuCV9Rlq3uIYNkEbjgggvMmmuuaYqLf/IVfP/9901dXZ3ZdNNNTVZWlh0NYcSEkZAZM2aY7Oxss+2229ptt9tuOzvCgmHTm7BzV6hj3Xta29rCkvAZ5Kjq6D991DkQA5KmNal21XdoTzVHV/pknRUQlkUavP322+aOO+4w55xzjnnqqafMsGHDzDrrrGPefPNN8/nnn5vDDz/cbldUVGSuueYas9NOO9kerK+//trsvPPO9jcMkQceeMBsvfXWpqKiwq6D66+/3g6/f/vtt9a4KSwsNHl5eaa2ttbGnWDoMCLT3NxscnNzbbmpqckkEglbZjQGw4c4Fsq41fC/fPNhG775jf3zf/w/5cfGjwmOUWcq+uSa+mSr6ZvINX2DcnNQxQYn8k1ZnxxTk2wxgxJ5thzs3a4v6pNtGoLtKRfXB2ubms1AG7yeZVB3CPBi5tKc4FgFWcH/BY0uM7b3zy+y11ySk2cq8wpMc6AcleUGx2lLmIbqGjOotMJUFBWb+uZGM7Ck3JYbW5rN0Ip+prywyNQ2NZih5X1NSX6BaWltDdb3NcV5+aY5KP9mxdXMBiutZvfPNbeheIXXD1w/94UXOfeSe0u5oaFh3n2mzMfdc8rcW/6Pe0aZUTFkmZMT3Jvw/nNPWU+ZfbJ96vH5Zmbl1ONz/ymzX3d81rky3xyf47Bvdy7sj/93Mudc2J59cwz2yfaUOS7rwR0fnPz5P/6f8s1vv2gqcwtMeSCP+tZm0z+vyFQEZWQ0IJBbcyDDqpZGM6SgNJBZnl2PnJljpiHY99DCEpNb3WCPObi80uQE++ZchgTl3OBcC3JyzYDScvt7UfB8U6Yp71tUYiqLS0xDc5PpV1xqDthsG1MayJ1z5dzcM58qF1cXuE6uheOwnmt0sljY63dl/o/fOY6rf5RdPWO7rupf6nkBZeSfWnbH51xTn0WOYWUe3KPbvvifqQzqX1NQi1z9qwvq2YCw/jWH60tS6l9RH+qcCepovikIysmZc61cqG8EzSK7rD4JWx8pV7c02SQTffMK7Uu0ODuo80G5JThHvpH/oRtuZe+Je+a4n+6Z57y5freea3bX755/ylwvsD3Xz4cyuOefe+ieP8ocjw/7Y1t3fHdMju+e+dS6wPbuXJwc3fEXdP+d/Nkfcuis/rGP1PNyz0Jq/XPX3BbYCQ9++YEpDGTBDM4DA9klmMk5kAFl1tJ+9gva2uAJtbLsF6xHhpWJHNsWI/Ojll5n3rm4Y/Jccp2cS35+vj1vrsXdF67f3f/Pvv/WPPfB20H962vygt9zg3o6MKxzhcG5DwzaWkya8qCu9Q3qHe1sZVDuV1Jmsz8NLqswywwaavbafGt7fI7pnnmOk1r/3Hqu38mCsqt/fPNhG75T5e/uP2W+3T1399/tj/vM9bOP1GOyr9RnAdy5uHuRKn9IlT/7dffZldn3uxPHmvFzZgb1rM30D2RF/WsKykPCesn7kjpH/WsJrsnVRZ463pe5gdQTTcG7s5X3YJYdDaH+8UwUBufbL6x/LPMOpP5VBO/EiqANpm3l/Viek2+WGTDYbDRsWXsvUusCZXdf3PVzXZw76ykD67nnrv5R5jd3z/l/V+YY7jisc/eFMsdELuzbbePuOeWOdYHjcX87Pgusc/cf3D1nH+zXnYuTP8dkW3cu7vp5Ftwx2Z5jchx3LpwXx3p7wnfm6znTgzawj5VXdnC/aSddnUNm/YMy5kTfsP4hW+onbTE6z8DmhClrCa4leP8NDtpWJy/a2cJAv6kJ2lR0GuQaPOlWF6L9dboQ7W2yus70D8qJoNLlBW3uoKB+JYJzKisotO+95tYWUx783j+sf7w30XlqGuutXtQ3qJubrr62WXbgEHv9C3oXpcofWaTWPyd/7k9qXeQeO1m4+8/+kCHffHoSjZB0k1tuucXcdNNN1uBIBUEjPAcCc5XfPRwOBM4DQKVJhQdr6NChZvjw4TaVIxWN7aiIlPk/vll26/l0XO/KHJMy55Va5kOZ/3PlYMHUBpWvOjA6qJz1QYNLmQaWbz5UVLapCT4YFqyrTVlf1xZsH1wvlbI+qFT0+FAm1S++laVBReWFTJn1fLMdZfbXECi/1U2NQSMcnEdQ+aob6tobz8D4qG6ot/tmHZ9kW3BewTY1jQ220rKuNii3BmX+v+P1u3vEOreeb37jvlPmf9x9ocx6yny79ZT5uPvMhzLr+B93HFdmferxKXc8fmqZ7dm2s3Nxx3Hr3TFTz6WzY7KNO2ZXx2dbV+b+1QWyqA0MA55hyk5GtYGyQkPMy5N1bj3fdcFvNMKUkU1TIFvkUh/sh0bWlgP5YnBQbgr22xA0gpQbeTFZOdfZnvu6YLvsnPZr4Ho6u36+WQa+U6+Tstum4zUv6PpZ744D7v53PCbrU4/jyu5cUo+fuk1X58JvlBPBm4oXIR0ApFd29Y96iYLaXv/a11NmPd/81hyup+zqH3XM1bnGoIx8KQ8rDJTPoM5SZh0pKykjTydzzpvz4ppSnzMni9T1XV2/u2bWd5RF6j1PLbtjuv2x3pX5pJ5L6jEXdC4cI/U4nZ0L2/I/qWV3TL7despuPevcer75n+CHebLAsKTcGHyjzLpy0GLZMnJrCLfB4Od/KCPb1HNx1wNuPUrXvGMGUGY7d21cF502rv5hcNj6F9S5huDTXv8CZSRQ6NrrX9AuB8oN5fZ6GygnwbMAHIN9u+ukDHynrme7VFmknovbhrK7htT7T5l9UWZbd8zU++yOyW+p5+JklHrM1G0opx4ntcxvlNmW9eyHcnNQH5EFRqOrf5RZ52Rk338p61m27WLwXR+sxbCgPvGO++n9F9z/QC6UMUjo+JlX/wJ5uHK9LTfb+sw5uXOk7M6RdanrO16zuxdcV2q5q+unzH64n6nr3b7dfWZ96j1PlZE7Psfo7Fz4dsfn2x2HfXQ8r67OhY97FvikHsedi1sf2BK2zrk2kvqWWuf4jTL1M1UXqguWKdPm1ra1ywV4F/KOnPf+C2SbG5xvWaDn8JuTOe3vT3pR87z6R91rCsu2/gV1kzJ1lY7Yn+pfqPNw/OAdWRXUR54Fd23g7lHH62cdZbee+9qV/F2ZbVPvc8d9893T9AkuTuNKaTJ27Fizzz77WLcshP3KK6+YAQMGmL333tv069fP/N///Z957733rPBw1WIEhJgRLPczzjjDjorAuHHjrEvX888//7OAxF122cXceeedP3MFyxR7vXSXeW7iN+FS90hMmmkSc7oOzMO3clZTYG0Hlawr6idNM/VTZoRL3ePIHfcwVx/9l3BJpEv/0QeFpc5ZprjCfF87Z75D07M++CIsdZ9xdzxqhvcfGC71HjDqKu88O1zqPtlf/BCWOgc5freAuQ+mn3drWBLpUh0oFSPuPT9c6j6zD5i/MwMztaeOtHfk/tdeMPucOzpc6h4br/Ir8/IlN9j3Xm/jtPefMdeOeStc6h6JmXNNYmrXsT7ZfRL2/fhjXdeJJvZYYwNz3V6HhUsiXf7y7pPmX1+9Ey51j8SMQI7TupYjMbJ9cwvMpPqfZ19Nperrcaalpi5c6h5XHHWSOWanvcIl/9EISTfAPeu+++4zRx99tDnqqKPMUkstZTbccEOzzTbb2JgShra++KJdEXvxxRdN//797YgHox3Tp083P/74o/3tm2++Mcsuu2yvy44yN3hB02sg/GZGY3tvjfAb5Cj8p6CgICwJX8GlZ3ZT75wOIE4wEoKeI9JDBkk3YOSDzFruQ4wHxgaGx8CBAw1hORdffLEZPXq0zcJ14YUX2iEufj/wwAPN8ccfb0499VQbK/KXv/S+Hnz8ZvOyetb3UGSeEZoYMRYgR0nRf3DZEn5DbNcQTYzoPcTODgz0HJEeMkh6gEsvvdTOO+LYb7/9zFVXXWXT+xJrsu6669r1+NwddNBB5uabb7ZGCb+tscYa9rfeBP7rykDhP+2xIsJ3JMd4gO+38BtGnIkvEH5DDNH8XNJF58gg6QHw200Nbse/lhGTQYMG/cIdC6PE/VZWVtYrfXGrmhvtkKbwG+KAZFf6D3IU/sNIvfAbXLbmNDWES8JXSMhC7JhIDxkkIuOQ6pcsFMJvyM5EykLhN8hRYvQfuWz5j01FW5D5ZDaiZ0md0kAsPDJIRMapaW6yPQjCbwi+1ACJ/0iOfvDej9/N9/PZtAmdrnef72ZMCfckokpbUBHxIBB+41IAi/SQQSIyTnOyfc4E4TeNbUxuFS4Ib0GOIvrsdNP58/2c8Mi/O13vPhc9/0i4JxFVSPXNXEDCb5Aj88yI9JBBIjIOM88yY7vwm0H57bPMCr9BjhJj9GlubZ3vpzInv9P17qNR6ehDlq1+eXL18Z2cPlmmMtBzRHpIKxQZh2AvBbX7z0zmIQnLwl8kx3ig5AT+05ZsM3MkR+/BZUuud+kjg0RkHKX8jQdkhBH+IznGA01SGg+IIxF+gwil56SPDBKRccpy8022XLa8p39ekVx9YoDkGA/65intr+8k+iRMZZ5cfXwnJ5BjeaDniPSQVigyzqzGegXuxYAp9TXqzYsByFFi9J+pDTVhSfhKa7LNTG+oDZeErzQlW+VC2Q1kkIiMk5+VFTx46pP1ncKsbNML5/WMHchR+E9BVk5YEr7SJ/jLV330nqxAjnkJyTFdZJCIjFOYnWuy5LLlPaW5+TIrY4DkGA9Kc/LCkvCVRJ8+pkRy9B6ypRVlq4MgXaQViowzo7HONLXKZct3JtZVyWUrBiBHidF/JtVXhyXhK7hsTa2X653vMAcJeo5IDxkkIuMUZuVohCQG0JMnly3/UY9sPCjJyQ1Lwldw2SqSHL0nK3gxoueI9JBWKDKONUikyXqPNUjCsvAXyTEelGRLkfUdJpotkiLrPWRLK5DLVtrIIBEZh2wwjXLZ8p4fa+co13oMQI6Sov/8WFcVloSvtAbtqVzv/KeprUVZ77qBDBKRcfrmFZhcuWx5z+D8EtNHI13egxyF/wzKLw5LwlfIPsm8QMJvchJZpm+u5gVKF2mFIuNkB5VViqz/5GaR3FD4juQYD3KDdlX4De9F6qPwGwzLHHW6po3umMg4TMTW2NoSLglf+b5mtly2YgBylBT954faOWFJ+EpLW5uZUDc3XBK+0tjWYiYrW1rayCARGafdZUu9QL4zuEAuW3EAOQr/GVQgly3fIdmLXLb8x7psBXqOSA8ZJCLjMGkQ6Q2F3zAkLSn6j1wL4kF20K4Kv6F/J1v10Xt4L6o+po/umMg4k+urTUObXLZ8Z2zNbJsVRvgNchT+M04uW96Dy9b4Wrls+U5jW6uypXUDGSQi4wwtLDX5WdnhkvCV5Ur6aj6ZGIAcJUX/Waa4MiwJXyHhy6jiinBJ+Ep+ItsMC/QckR4ySIQQQgghhBBLDBkkIuNMqqsyDcqy5T3fVs9Ulq0YgBwlRf8hW5rwG1y2lC3Nf3BJn1gnl610kUEiMg7ZYPISctnyHVwLEnLZ8h65iMSDEUVlYUn4SnaijxlWIFcf38lLZCnrXTeQQSIyTnsgtPpkfae1rU1SjAHIUfhPS1Jy9B1eja2So/fwXpT3QPrIIBEZZ3pjnc1CIfyGCbySanS9RxOxxYNJchHxHjrrpjRoQj3faQr0m+mNteGSWFhkkIiMM6SgRFm2YsAyJX3lshUDkKOk6D9LyfXOe5iDZERRebgkfIUsW+g5Ij1kkIiMY4cy1bHuPXL1iQdyvYsHcvWJA0nJMQYkgz+5bKWPDBKRcaY11JpGTYzoPePr56rRjQHIUfjPhLqqsCR8paUtaScOFn6DyxZ6jkgPGSQi4wzKLzJ5ctnynpFF5XLZigHIUVL0H2XZ8h+ybA1Vli3vyU1km4HKspU2MkhExqlvbQkzbYnFxVMTvjI3f/3uIn0WRG1zk1x9YoDkGA9qW5rDkvAVXot1rZKj77Ql20yD5Jg2MkhExqluabITQInFxw1fvm1OfueJRfosiFlN9cqyFQOQo/Cf2ZKj9xDNNbepIVwSvtISvBermpvCJbGwyCARGWeAddnKCpeEr5ANRi5b/oMcJUX/GV4oly3fyeqTMEMK5bLlO0yMODDQc0R6yCARGaehtUXB0DGgtkWuPnFAcowHda3qkfUdRpzr5HrnPa1Bi4qeI9JDBonIOHW4bCm1ofdUNTdan2fhN8hR+I9cRPwHl62a4P0o/IZU6orpSh8ZJCLjVOYVmtyEXLZ8Z3BBiUnI18d7kKPE6D+D8pXVx3dw2cKlWfgN+k3fvIJwSSwsMkhExqFHVkHt/jOzsU6uPjFAcowHs5rqwpLwFbIzKTmB/zQHctTIc/rIIBEZh/gRKUD+w4zCkqP/aGboeKBU6vFA8ZVxgBn3Jcd0kUEiMk55br7JSejR850B+cVqQGIAcpTLlv/0z5Orj+8k+iRM37zCcEn4Sk6fLFMR6DkiPaRPiIxDnnW5bPnPjMZajZDEAMkxHuB6J/wGl61ZkqP34LKl+WTSRwaJyDiauyIe0Jsn/EdyjAdqV+NAHxvYLvyGmqj6mD568kXGKcnJM9ly2fKeytwCufrEAMkxHlQEchR+gxJbJlcf78kOjEr0HJEe0gpFxpnRWGeaWlvDJeErE+uqTJt8fbwHOUqM/jOpvjosCV8hwcSU+ppwSfhKU1urmS7Xu7SRQSIyTmFWjsnSCIn3lObkGY1K+w9yFP5TkpMbloSv9An+iiVH78kKXoxFgZ4j0kNaocg4hdmBQSJN1nsYkpYU/UdyjAcl2TIsfQeXreJsGSS+QxwQeo5IDxkkIuPMaJDLVhyYWDdXLlsxADlKjP4zqb4qLAlfkctWPJDLVveQQSIyDkPSCmr3n3KCodW17j3IUfiP5Og/CdNHLpQxAJf0Eo10pY20QpFx8hJZtuEVfkMskKToP5JjPCjIyg5Lwlfo4JEc/Qf9Jk9yTBsZJCLjTGmoMY1tLeGS8JXva+eYtqScfXwHOUqK/vNDIEfhNy1tSTO+Tq53voN+M1lZ79JGBonIOP3zikxuQr0HvjO8sNT0kc+W9yBH4T9DCyRH3yHZy+CC4nBJ+EpuIssMCPQckR4ySETGIX5Eeqz/5ASNrsToP5JjPECOwm/o4JEc/QeXLcXJpo/umMg4U+trTGOrXLZ8Z1ztbLlsxQDkKCn6j1y2/Kcl2WYmyGXLe3DZUra09JFBIjJO37xCuWzFgCEFctmKA8hR+M+QgpKwJHwFl62B+XL18R1GufoFeo5IDxkkIuNIh40HDEtLlP6jjHfxQJ0D8UCtqv8gQdXH9JFBIjLOpPpq0yCXLe/5rmaWaZXLlvcgR+E/39fMDkvCV1rb2syPdXK9852G1lYzUROVpo0MEpFxhheWmYJsuWz5zgql/ayLgfAb5Cgp+s9yJX3DkvCV7ESWWbq4MlwSvsJcMiMCPUekhwwSIYQQQgghxBJDBkk3aW5uNuPHjzfffPONmT37l0PlM2fOtL9VV/9ychy2//bbb83cuXPDNb2LKfXVyrIVA8bWzFKWrRiAHCVF/yFbmvCblrY2M762d+oFcaJBEyN2Cxkk3eSoo44yu+22mzn22GPNb3/7W/Pss8+Gvxjz2WefmV133dWccMIJZpdddjETJkwIfzHm1VdfNdttt5058sgjze67726+//778Jfew8D8YpOnLFveM6qowiTksuU9yFH4z4jC8rAkfCU70ccMLVS2NN9Bv0HPEekhg6Sb/PGPfzRvvPGGefrpp81VV11lP8CIyCGHHGJOOeUU89hjj5k99tjDHH300aahocGOiJx//vnmrLPOMs8995zdx3nnnWf/rzfR3NZm2tQn6z3kWpcU/Qc5Cv9pamsNS8JXGHBuCt6Pwm+SwV9zUnJMFxkk3WSjjTYyubm588p1dXW2/PHHH5uqqirzm9/8xiQSCTsKMnbsWDtKMmPGDJsKbptttrHbsg3bd+byFWdmNNbq5RkDmMArKZct79FEbPFgkrL6eE9roMRObdCEer6DfjOjoTZcEgtL1ll014tu09bWZq699lr7vcMOO5j33nvPvPXWW9aVC+OjsLDQ/r799tub1tZW8/7771sjBYhDefDBB80mm2xiBgwYYNfB1VdfbZqamsxHH31kR1xKSkpMQUGBHWGpqakxWVlZZs6cOXbUJT8/3xo09fX11gBiPf+bk5NjZs2aZcsojfwv58iHbfjmN4wn/o99UX5iwlcm2dBkBibyTE2yxQxJ5JvBwafRtJmlsgpNv0SumZ1sNkslCk3foBzs3a4vS2Sb2mSrWZpyY5tJNjWbkUXlpiA7x6aGXSoo52Vlm9zg3NeqHGLX5QTHJeMWE5NU5hWYwfnFtiIzodDA4Jh1wbWO6jfADCqpMDWN9WZk3/5mYGm5qW9qNMsPGGoGlJSZuUGlX7b/YFNRFPxvS4tZbsAQU15YZBpbms2mK61u1lluJXv9XHNL8Lsr8+2uHxobG+fdi9ra2nn3mTIf7if30JXZlnvu7jMGKWX2jVz5X+TCfp1ckL87PmXOh/3wnHD/kTVl9svx2R/r3LlQ5jcMYfbNMbOzs+15cZzUc3lx6vcmUd9o8vsk7L1eOqvIFPXJMtkmYUZkFdieiIJgmXJWUC5P5FhZNwVyRsaU22ZXm0EFxWZAfpGpaWmysqKMjMggsnrFQPNj7VyzdCAfZNYYrB8VyLkoO9fUBfd/2ZJKU9TQauNMluk3yORmZ5lEcD7IKz8416K8PDOyckDwe5spKyiyZXqWBpdVmCFllaamqd4MLe9r9txwM1MayJd7xbVRF7iHyMLVBa6fusD1cy+5j6znHnP/uV/Im+ee+4UckIEru/vP/rjHlPk/fueY7JsysuCeuzrHuXSsf04W7pjgZJ5a5jlxz597Fjlv9/zl5OSa/4x51wwKZNFgqFtFVjZVQf0bGdQ/ytRL1lcG8qsJ6h91sbRPUOfCelkcyLhtVtW8+kcWH2THd17wQabLlvS1M0QzsR7PSkVQFyk3heuQ+YHrb27vCefG8+eeM8pcD/fP3RdXZj3X6GRBGSgjB2Tj7n9qW8R+3f3neKl1jjL7psw9zwueIeL1+B9X/9gX27hnwckl9f5zbFf/wB0fnPzZH3JIrX8ch2Ny3u5c2J97/ty5uOfSXnOij3nqq49NSR9qnwnqXKHNTpcbLI0MytlBuTT4bWiiwDQH8kSWlBlFpu2lLa4K2uIRdUnrBoJcRhSVmYrcoB4EdWSZ4krTP6h/IwIZFwd1rzh4bmqC+rdcUP/KcoN6HNxf2uKspqDNqaa9HGIKArnlB9uNCuoc/bkleflmVN+BdgIF2tihZX1NXXOjrYvDyvuZptYWs3S/gWb5wcPMbptuaa8t9Tq5z9yXjnWB63eyoIysuXcd30XcPydz9uWeBSdz9u2eP/bHcTg+95x9cEzOhfVd1b/UZzG1/eWc+I0yv7NfJ3NX5pgfTfjeTK8K2h3TYoYF8qH+1QdSWiasl9WBjFz9Q47Uy9LgvdgSlEcF6/ODupjVHLSRyTxbF5k8j/rHMZHZ0IJSWy9/FbSruPzQw468rcyDtnVQ8N0/qIuj+g8y6w0aOa9ecD+5Z6n10tUFrsvdl9R7wT137R/l1Prnnn93L9xxWJdaF1z9c8d0dYF9cS4d6wLHY5+cC+fFcTk+sEw5tS1mfxybMufFN/tzMuc39u2un7aYY7pnwV0/58458lzAB+PHmu+rZgbvvYSVSy73P6x/tJtlQf1Dvqn1L1UX4h05qjXX9E1mmVlB/VuquCKof0WmOXz/leTkBfJqM+v1HWZdmrkm6l9+IHPbLhdVmMJAL+pT02BGBHWUe1KYl2uWCupfImgr+hWXBnWur2kI3rkDSsrN8ArqX7NZJpA7y7Prqm1dHRTUzY1WXSN4b/a318x94d5SdvUPWbj6wr1w9Q9ZUGabVPlzLtwn9yy49o97yLd7Ftgf95h99yR9gpNSF+ci8Oijj5oTTzzRumAttdRS5oEHHjAXXHCBNUwcq622mvn3v/9tBXjJJZeYO+64w65nxIQ4FAyQ1Vdf3a4DDJvLLrvMFBUVWYOmtLTU/q97ofKg8BBBZ+t5qPi4bTpbzzcgfn7nm8++r/zHvDzpO5sGlEY1Oyjxh3MOZaBC5gSVmSW3noeIhpf1ickzTducoEEJlE8qNS9EW+YYwR8+6/QC1QcvOV7MKEGcDntEMeK7ccoMUz1pmsnOap9+jxcijTXbtQTXmxNUbnsuwfqc4B5wAi1Bg8B6jsE2R+24h7nsiBN/ds2dXX9X96JjueP97Kqcepyu1i/KMRfmWdjz5bvNG5O/b7//wQdViPvClsFdtA0juDJnY+9/UEZpstIdMy6Qjy3Zxtbe/6CMjJDnCiX9zBdV0+w24NZzHIIzeeHO+miMza3P/9L719YWGKLBeWKEBJdosoLzR27I2JXtMYP70y7zhPnqlgfNiAGD0rp+t76re97Vev6vs/vPvil3tr6zc+ms3NUxOx7f/V+foDzwrr/Pk4urf+31sl0u1Ll2Nbd9PfUPySLT9noZ7H/MDz+rf9zf1PLygUHyZfWM9uOE9Y8XKWUn/wnn3NTpfUn3mlPL0Nn1px4ntdzZcXr6/s/vXBZ0zK6ev1qM8/suDO62sXWRWsQ3y65s/4f7H5Rd/UOGfHNGyDb/y/F2ydUzQFHNDeoWYJgwpwx7xi2W9fZZCLdvmD3XVI0db9vIX9Y/ylm2TKcB8m+mfQ5+Z7k5uK7s4Po2XHk18/yF7R1wsDDXz2dBZZjfPe9q/eKof6nHSS3/7f1nzQ1fvv2z+ufqHHRe/34qWznPqjK50wIjgP0Gf9Qv+/4LtuOecy4otcwp017/gnXBX2p551+tZ67a7RAO2el1ppZTr7mr9XzDgq6/4z4g3brQ2TG7Knd1/O4e060/9d2nzM1fvxvIw/wkF34Lyqnvwo71j235o47mzgwU9ulzbf3jPcc2rl6yN76JBfqhNlD+w/XInGO1bxMYBl+PM8m6xuD9yJHaUz7zruQWtNe5n9c/q+cENAXtSXZQh3leLj7seHPEDrvZ9QuqC6n3omMZ5nfPO1vPt/vfnqK9Jolu8eKLL5rbbrvNPPnkk9YYAUY6sOKx5gGjAyEyyoGBgaXuYDus0SFDhoRr2sECZd3QoUNNRUWFfdCAbz48BK7c2Xr3oMxvPWU+7ndXpmZR+TA6qCSBTW3LLPHNB9w2bj3LbG+3CSoglY/KimI6rxysp/GdEhojVFTW8812lNmW7VBGeWky6sFoB/eQCsoy27DOrWdd+/bt6902HKvjNXd2/anl1HvRscz3wpT5nwWtp9zVcVLLfHcsw4LW23seyILGE4m1yyi4J6G8+E4tsx1lpDivHOwDQwS52GchLNt9B98/1rW/WCmnrkcZss8C6wNZ0MgiF4xEZEqZBhblhzK/p5aRJeV2mQcKUsp963idC1qf+r+U3b3taj3rUst884Gu1rty6vrOyl0dM7X88//D4PhJLnzzaa+X7WUnW7eeb35z2yNzJxdX/zqWx9dV/bL+hWUnc86r83Ocf5n/6ars9pda5veuynx3LENn6zsrs6/Ustt3V2W2TS3zzaerY3a2nv+nTXVycXUOuaaWO6t//O7k3F7/fpIL33zAlXHZ4pvt3HrkN0/+wXrKnde/9npJmXaWspV/sF17OTh28E0dho7Xyaez9Vz/wpT5uP9LLfM9v/WdHbOrclfHTC3ze1fl1lCOqfXP1bnUMr+x1LGMXO19RBYp9c++/8L1yIuJgym317/29anloGjPyZ3X/Mqc/4LWU+7qmlPLfHcsw8Ku7+qYXZXZNrXMN5/O9t3Vev4/dRvKyNHKIkUuqXWuy/oXrrf/F8oLOr4X3fKU+hpbduuR8U/b/FTn+J73juS3eXXu5/WPbz72XNw7Mvhz1wap19mxnHovOpZT73Nqme+u1vPd08gg6Savv/66OfTQQ83pp59ull9++XCtMWuuuaa1Uj/99FO7/Pzzz5u+ffuaESNGWOMCI+Tzzz+3v3333Xdm5MiRpl+/fna5t4ALSF7wQAu/wW2EXhrhN8hRUvSfYYWaiM13GAUZXKDsTL6DOyx6jkgPGSTdhOxYw4YNs65Yxx9/vP0AIyG4YPEhuxYuXf/85z+tr2VlZaVNBXzGGWfY32688UZz2mmn2f/rTdS1NJnWNux84TNzmxtsb43wG8kxHlQ1t/vIC3/htVjT3B7rIfyF0RBcNUV6yCDpJrhpMafIFVdcMe/j2Gqrrczdd99trrnmGvu99tpr2/UMce28887moYcesr/dc8895le/+pX9rTdBwCUVVvjN3KZAkcV/QHgNchT+g2Ep/AYXnGoZlt6DOx6JYER6yCARGUcuW/GArD5y2fIf5Cgp+o/NWCi8hiD3IYWl4ZLwFVy2BsplK21kkIiMU9/abHsQhN/UtDTK1ScGSI7xQD2y/sOIc63k6D0kKkDPEekhg0RknMYwI5bwm7qWFpvxRfgNchT+IwXIf8jgRAZK4TfIsSHMSCcWHhkkIuOU5xbYSRGF3+B6l5Cvj/cgR4nRf5icTfgNLltMMiv8JqdPlqnIzQ+XxMIirVBknDlNDTYPt/CbaQ01NiuM8BvkKDH6z/TG2rAkfIX5JmY21oVLwleak61WzxHpIYNEZBx6Y9Uj6z9kjVNMu/8sjgmuROZJqFWNBcwGPj/ufvFpk7Xtrxfps9Vfjw73JhYPejd2BxkkIuOU5eabbLlseQ8uImpz/UdyjAd95erjPYk+CVOZVxAuCV/JCeRYliOXrXSRVigyzpymerlsxQC5bMUDuWzFA7ls+Y9ctuKBXLa6hwwSkXFyE1l68GJAXla2hqVjAHIU/pOXkBz9p499Pwq/we0uR3JMG+mFIuMUZueaLLlseQ9D0rJH/EdyjAelOXlhSfgKE82WSI7ek90nYYqyc8IlsbBIKxQZBxeRRuXo9p4faudoPpkYgBwlRf8ZXzc3LAlfYUK9iXVV4ZLwlca2VjO1QS6U6SKDRGSckuw8BbXHgL65hcrQFAOQo/CfilwFQ/sOmdLKNX+F92QH78XSnNxwSSws0gpFxinIzjFZUmS9pzhocCVF/5Ec40FxthQg36GDp0hy9B4muCzIkstWusggERlnRkOtaZLLlvdMqJurLFsxADlKjP4zsV6uPr6Dy9aU+upwSfhKU1urmS6XrbSRQSIyTqnmIYkFzHuggS7/0fwV8UCud/7T7rIl1zvfQb9hvjWRHtIKRcZh0iDNKuw/pBmVFP1HcowHShfrP3TwSI7+Y9P+BnqOSA/dMZFxJtVXm4a2lnBJ+Mp3NbOUZSsGIEdJ0X++r50dloSvtLS1mR9rlS3NdxoD/WaiXO/SRgaJyDiD8os1iVcMGFVUbvPmC79BjsJ/RhSWhSXhK8zPNbSwJFwSvsIoF3qOSA8ZJCLj0OhKj/UfzUQbD5CjqqP/qD76j2b4jge4pCtONn10x0TGmaqJEWPBD7Wz5bIVA5CjpOg/P9bNCUvCV1o0MWIswGVrSqDniPSQQSIyTr+8QgXuxYChBWVy2YoByFH4z5CC0rAkfIUJ9QbK1cd70G/65xWFS2JhkUEiMo461eNB0v4J35EU40FSDav3IEHVR/+RHLuHDBKRcSbVV5mG1uZwSfjKt9XKshUHkKPwn7E1yrLlO2TZ+kFZtrynsbVFrnfdQAaJyDgjispNQXZOuCR8ZaWy/iZLLlvegxwlRf9ZobRfWBK+QkD7siWV4ZLwlYKsHDNS2QvTRgaJEEIIIYQQYokhg0RknKn1ZNnSxIi+M65GWbbiAHJckBTf+erzRf60timz3uLkx1pl2fIdXLYm1Mlly3dslq1AzxHpIYNEZJyB+UUmL0sTI/rOyGJNjBgHkOOCpLjZyUcs8qemvj7cm1gcDC9StjTfyU70MUOVLc17chPZZmCBsqWliwwSkXEa21rVsx4D6lpalEckBiyMHBubmxb5oyxQi5d6jTp7D1WkoU1y9J22oEWVF0j6yCARGWdGY51pkvuG90ysmyvDMgYgR+E/k+urw5LwldZkm3VpFn7THOg36DkiPWSQiIwztLDU5Mtly3uWL+2nLFsxADlKiv6zTLGyM/lOdiLLjCquCJeEr+Qnss2wQM8R6SGDRGQceoHUse4/BGAK/0GOqo7+0xK0q8J3kmpXYwCTIrZKyUkbGSQi48xuarBDmsJvpjbUmDa1ud6DHIX/TJMcvQclVq4+/tMcGJWzmpTEI11kkIiM0y+v0ORmZYVLwldwvUvI18d7kKPE6D9DlJ3Je7L6JMwgZWfyntxElukf6DkiPWSQiIxT09ykYekYMLupXq4+MUByjAdzmhrCkvAVkoTMlRy9B/fJ6kDPEekhg0RknIbWZmVnigG1LaRyDReEtyBH4T+1rZKj7xB7UB+8H4XfoN+g54j0kEEiMk6//CK5bMWAYYVlctmKAchRYvQfTajnP+0uWyXhkvAV67IV6DkiPWSQiIxDj2yrXLa8Z25zg1x9YoDkGA+qAjkKv6Fnvbq5MVwSvoLLlkae00cGicg4ZBKRAuQ/ZBIR/iM5xgOl/Y0DSckxBqDftMifOW1kkIiMU5qTZ7ITevR8h2xpcvXxH8kxHlTmKquP7yT6JExFbkG4JHwlJ5BjWaDniPSQVigyzqzGes1DEgMm11drHpIYgBwlRv/RfDL+w6TB0xtqwyXhK03JVqvniPSQQSIyDqMjfdQn6z0E7vWRGL0HOQr/yZEcvYfmVN4D/oOGIzmmj+6YyDhy2YoHfeXqEwskx3hQKVcf75HLVjzIDuSIniPSQ1qhyDiz5bIVC6bU18hlKwYgR4nRf6bJZct7cNmaIZct72nGZatJLlvpIoNEZJyC7Gybb134TXFOrly2YgByFP5TlC05+g6uPoXZOeGS8JVE8FeQJTmmi7RCkXHyg4qakCbrPcWBAiQp+o/kGA9kkPhPn+C9WCg5ek9WIMeCrOxwSSwsMkhExiGrT2NrS7gkfGVszWw7kZfwG+QoKfrPuNrZYUn4SktbmxlfOzdcEr7S0NZi9RyRHjJIRMYhaE8ZYfxnYH6R7dETfoMchf8MyJMcfYeedZJMCL9Bv1FygvSRQSIyTn5Wtly2YgAuIpKi/0iO8UCuPv7T7rKl2APfyQpaVPQckR4ySETGYeKnplZl2fKdCbVz5bIVA5CjpOg/E+uqwpLwFbJsydXHfxrbWs00ZUtLGxkkIuO0u2zp0fOdAQXFctmKAchR+E9/ud55D54DctnyH/QbuWylj7RCkXHwk9VM7f7D5E+Sov8gR+E/kqP/0J5mq5PHe9Bv0HNEeqgFExlnQl2VqVeWLe/5pnqmaZXLlvcgR+E/39XMCkvCV8iyNa52TrgkfKUh0G/Qc0R6yCARGWdIQYkCvmLAMsUV6gWKAchR+M9SReVhSfhKViJhRhSWhUvCV/KzsszQwpJwSSwsMkhExqHRlR7rP9lK3RwLkKOqo/+oPvoPrj6So/+0u2xJvU4X3TGRcaY21JhGZdnynh9q5yjLVgxAjpKi/4yv04R6vkOWLWVL85/Gthar54j0kEEiMg4TeOWpF8h7hheWaT6ZGIAcJUX/GVpQGpaEr+ACO7hArj6+k5vINv01UWnayCARGYdeoKT6ZL2HAExJ0X8kx3jQErSrwm8YcJYc/Qf9Rglf0kcGicg4E+qqlWUrBnxTM1MuWzEAOQr/UZYt/8EYGVejLFu+oyxb3UMGyRJg9uzZ5qOPPjKTJ082yV6o0I0qLjeF2TnhkvCVVcoGKMtWDECOkqL/rFTaPywJX8lJZJnlS/uGS8JXCrNyzFKBniPSQwZJhvnkk0/MhhtuaI499liz5ZZbmvfeey/8pfcwd/I001LXEC4JX5k+9keTbNMIie9YOYZl4SmtbWbGDxPCBeErbU3NZtb4SeGS8JXm+gYzJ9BzRHrIIMkgdXV15uyzzzZnnnmmefXVV80111xjy01NTeEWvYM5k6aaZhkk3jP9u3GmrU3+zr6DHGWReA4Gybjx4YLwldbGJhkkMaAFg2TSlHBJLCwySDLIrFmzzNSpU80+++xj+vTpY1ZffXVrpHz++efhFj/RG125hBBCCCFE76NPoPhK880Q3333nTn66KPN008/bZfr6+vNLrvsYo477jizww472HWw9tprm+22287k5OTYT25urjVgnKhSy4lEYl4vdVfbLKjMN1B+YNxnZlx1e3AkuXcSoXc5R3DW64LW96mpN6ahkZLteCXjBOvbjxpsP7PaJIvyTDI/uK5gmd/ZFly5pabWNFXX2nPjrzW4xkQiLCfb5k06RDkRltvC9eyDYOt1l1/ZbLvOBgu85s5+X9xlvsGVF/b/FrZ837hPzY/Vs205VV782n7P23Hl9l9/Ls8+M+YE69t/+fk+2mXUZ9JM0zqowj6DqevBbd8wZYaVCzJyAfCkCmZbFimnrqccfNn98H9c07E7723KiornXVtPP/PzK7v/64ljppb5hgWVL/7kFbucTv1rL/+0PlWOTkbtZ9NeNpNmmOSQvuF6fmnfOlWetZOnWRmy1GX9C+4Pk57yf8jR1sXgmz+2OWmP/U1+blDvg3WpdLxm93tPl/mGzsrz+7+FLXf1jDQH9+iKz163ZdZw5PZffiq3n03X69lr9oz2eUZ+Luew3BpsMX2OMYMqf74+wMmxpb7RNM2psvXMSiU4wPzqn5UtJbu+Xc7D+g80f9hqhwXei3TKfENn5fn936KU+Yb5re/4fy9N+s68N2NCh/ufWv9Sy6n3P/h/WwqobzCJ2ka7jl+4z8iCLdgm2dRsEnNqTXJAuV3fvpYtfyo319Wblqoau9z+XgzrX4d66eof5+Lei1wOch45cLA54LfbLfCau1vurC7wDQsqu32kW17YNvr5id+YD2a2j0Jx5PZfOi+3n9kv5ZkI6lKf2oYO64PzD8ttDU0mK/g92bf05+tTtm+YGbyfm1vTqn+Qqgttvfb6Zp3lV7Lr53fN8yvzDQsqd/w/dNPjjz/eruspZJBkEAySY445xjz11FN2GYNk1113tfEkqQbJtddea40QcA+FEEIIIYQQS5rs7Gzzhz/8IVzqGWSQZJCJEydad60XXnjBGhwzZswwu+22m40lWW211cKthBBCCCGE6D24EUaRASoqKszAgQPNQw89ZBobG81XX31lDZNVV1013EIIIYQQQojehUZIMsyHH35oLr74YuvvyK3HB2+99dYLfxVCCCGEEKJ3IYNECCGEEEIIscSQy5bocbBxSW9MmmPhL8hx7NixnaalFkIIkR60qXPnzrUTJAshfo4MEtGj0OB++umnNvsC2cQ0AOcnyO29994zf/rTn8zHH39sWltbw1+Eb7S0tJiZM2eampoa1UePQY508jB3lfCTOXPm2Eybd955Z6+bEDluNDc3m9raWr0bexC5bIkehdTGJ510kjn99NPtfCpUWgL4S0pKwi2ED0yaNMnOj3PmmWfaDHAotLNnzzZLLbWUTfcn/IDm/fLLL7eZ/fLz882JJ55oNtxww/BXEWWmTJli3n//fTsnFenfiT18+eWXTd++fc3o0aPNSiu1zz8g/KCqqsoceOCBZv/997fZNTEwp02bZgYPHqw21SNoUydPnmzOO+88M336dPOrX/3K6jx5eXnhFqK7aIRE9CjPPPOMWXbZZc1yyy1nR0h22mkns/3229tgftm+/vD222+b0tJSM2jQIHPfffeZPffc0+y3337m4Ycflhw9gc4AXENwufvPf/5j/vjHP5qTTz7ZvPTSS5KhB9Cbfumll5q7777bvPPOO+aHH36w9W+LLbawI9AffPBBuKXwATrr6NT57W9/a70IqI9MjHzJJZeEWwgfYLqG3Xff3Wy11VbmhhtusHXzX//6V/irWBSyzgoIy0IsEig59BLcfvvt5tFHHzUNDQ22R3bkyJHmxRdftBVYRBfk5ybiHDBggJXhvffeaw0TemRXX311q9jusccedhsRbR544AFzyy23WKWHXrxlllnGrLDCCuaf//ynGTp0qBk1alS4pYgilZWVZt1117VKz7vvvms7BJZffnk7Yjls2DA7YoJcqasi2tC2FhQUmOeff9528JDy/7DDDrMusbhvqU2NLt98840pLi6eN4qFLsMs5Yx2YUzSaUe2VEbAGIXWZNbdRy5bYpHg8aHnh4aWOVW23HJLU1RUZH0rhw8fbo2Syy67zCpCDFOrskYT5DhmzBhz1113WZ9YRkRWWWUV09bWZl+k+K0jR1y2cDkQ0WfcuHHmyCOPtHI899xz57kU4L51zjnnmH//+9+2s0BEC2J9kBUuPbhOUveOOuooO9L8l7/8ZZ5ihMGJOx7zWskoiSa4ZL366qvW5fU3v/mNWXrppW0P+5AhQ2w7++yzz1o3vIsuukjvxohy6KGHWvdI2tLCwkLz+OOPm+eee852CvDOZGJr6uSpp55qXbdwwRPdQy5bYpFguBI3ECohyiuVFyNkxIgR5ttvv53Xc7DtttuqwY0wuH+cdtpp1h1ko402svEjyI8G+KOPPrK9ebxAMSpFtKH+ocRibFx33XXW35ledhRc2GyzzayLAS9UET0uuOACOzLJSNYTTzxhDcobb7zRxpMwQkk7C4x8sb5fv352WUSLCRMm2AB2XO2Io6RNxeWO0Ulct/7xj3+Ym2++2W6jd2P0QEZ01J199tl2hJLRENxg11lnHVsXcbu79tpr7WgJo1xZWVkyRhYRjZCIhYZHhZSF5eXldhkFB5cslFTceXiRMipCbx6/0TNEbxC97Qraiw4YFqRlpvHkRYiCgxw333xz24tHbzquIRiXyJvMPrxc+Y1GV0QTDJFbb73V9phT3nTTTc0JJ5xgOwRQeuhhx7BkJFNEFzoADjroIOtSxyiWSwhCPNCf//xnc/DBB5t9991XdTHiYDwywoXMaGfpvEN2uFGuuOKK9nfcfnDzEdGB9yFtJrK64oorrE7D8rHHHmvdJY844ghrZDIiwsgksuV3tsV9S3QfjZCIhebHH380Rx999LweOhRbAi9RbOldp+LiE4uyS+8e7lu8OGWMRAvcBxi5wthw0INHGkpcQkhIQMAl7gbIFcWIXnUpQNHmlVdesfPGYJTcfvvt1ijhpcloJSMkKLR0EIhog5KDQZJIJGwcF6D0oAxdf/311uUOBUhEB9evyzfvRd6R1dXVPzP+6VlnVIukEsTl0TkgYyR6UL/uuOMOa2AwIkKiHjoFyKqFUYlugwu6G93C4KTNlTGy6MggEQsNBgfBzbjy4J9OY0tqXzK+4B5C5aQxJg4BJUhEE1w8rrrqKmtwMBSNsrPNNtvYFL/EiPCixDi57bbbzHrrrSdDJILgkoUM6RAAFKHXXnvNuka6gPW//vWvNr4LP3Xcs/B1lktBdKHtxMWO0Ug6fv7+979bxQh3EBQjOoSolxglbpRaRAPcd3Dpob7Rkz5+/Hizxhpr2AxpZJjEQHGGimQXXeikIy6L0WQC2SdOnGiX6eyh7cTVFRkTT4k7MzJeeeWVbVksOsqyJdICZfaNN96wbj0oPxgkX375pfnss89s7ys9sShHuG3JNSS6YITQ2GKEoLzirkVv3SOPPGLjSTBGyPLD8LTkGD1wiaSnFdcPkkjQm47CioFJWlHkSzICRkUoO8OSsogetJkkBrn//vttsDrtKiMiG2ywgTU8mZyUuJJf//rXtrNHcowedMTx/jvkkEPMWmutZRVY6iaGJS4+yBc50qnHehE96uvrrUsd9e/CCy+0Hh7UQzwHBg4caMvUwZtuuskaL7SroueQQSIWCl6Y9PpQSelBx+2HmBGCoMnJTVYYGl162slGoaHo6ILiiisW2bL69+9vM7wwdwxzxqy55ppW1siU3zXZUzQhkJKYHowSAiuZ7JAMPrwoqaeMZlIfUWKJBeJlKqIJPee4gRBzhzJbVlZm5YhbCAHtGCX0yu69995WAZIxEj0wMMi4RN2rqKiw6ZrpyEGBJTUzv2GgkN2Ojh4RTdBbcHXFACH2dZNNNrEdAIyCMCrCSDN1ks5YjYz0PApqFwuER4RUlPT0/O53v7OVlB7ae+65x+ZUJ/CS2YNFtEGO5FRHiSVonbgQ1r3++us24wujJWTYksITXUin7V6CTDy6/vrr29FKXHlwGaGj4G9/+5t1IUExwm0Lw4URFBFNGFk+4IADbDtK/AhtKyMlV199tXXhImGI6mS0ce9IPv/3f/9nVl11VavUIjfqJEaI6mD0QY7EhpDIhfaV0RI3X9Obb75pYy95V2KQiJ5HBolYIDwiuGAx4zOuPPTEAi9O/NIZiqYSKxd+tKEnFmWVmALkRi8e4NdMelF803EPcfIV0QI5MRkeCg7GxpQpU+zLkfpJ8DouWaSopIedoGdctuillTIbbXD9+P3vf2/Tp2M8Ii9kusMOO9jYEQwTRktE9GC0GRc7YioZXd55551tpwFZCxkdoeOHeUaoty5bmogm1DXaTeTECDQdrhgkjF4iS8AowUAhTk/0PDJIxEKB+wduPGRfwjhxvT1U4rfeestmENHwZfQh8wvuWvjKYoC4gHWUXV6quBWgyIpoQhA7AZeMSDI66WRFzyzGJtnSeIEq7ifa8NqlQ8fVP0ZHyIxG0CwdAi6+iwnZCHK/9NJLla0wYlAXcU/ecccdrZwIfgZcKN2IJTIm9baSSUQb5mpi9OP777+3ssQdnQ7W//73v7ZDgLqJu5Y6dxYviiERncIL86uvvrLuPRgjvCT32Wcfc+WVV1qlh0rLC5IXKhm26FEQ0QM5EkhJLx7B6rwY6cXDX/3JJ5+0AXoYkjS09LpLjtEGQ3L69OlW4WFyLka58HvGAEGWyJUsPspyF12QHSOR559/vnXNQvFhNITOAtpXNwEiAbWMjJA9DaVXBkm0wGOAThxm5yblK/P+kKaZEUzcmkkusdVWW2lkJOLgnkVmNFIyk90OF0qMEGK3Nt54Y1vvMEy23nprGSSLGTk1ik4hWw/BsKSGxZeSXNsEQPMipWedjCIaXIs+jF7R2GJQksaQibiAnOo0tPTCMjoiog/1DWMDmZEjH8OEnjzWU09RboknIcBdRBdc7VBaSeeLMoubHWlFSZvOSAmB7fSyo9TyjRuXRryiB8opPevUP8rEiZACHwMSzwHhB4xA0hlHhytZC3GdpHOHNpYRLjoGSEYgY2TxI4NEdAruIPQS7LXXXtY9i3zbfA8ZMsQ8+OCDtjdPFTTa8KIkjS9GJGkM3377bdu4utgCGlmy9siwjDbE/uDKg7skE48ysoUMcQnBbYQZhXmJso6P6mV0wQghqx3JI4j1wdjAqKSOPv300zatOv7qjDzjvEBcAvKVTKMB8SEosBgczNmEtwAddLhMsu7rr7+26zWaFX3w/CBGhEySuGrRwQN4CfCeRM7Il7roXGPF4kUGibC9AMwjguLjwOAgrR2ZtUgJSy87k7HhSkBA13HHHRduKaICriC4DLjeOZQYXpT0+pxxxhk2XeHhhx9uZUvvD64E9Og5P3YRTRiNZK4f3HlQYjE+HnroITtaQipKFFbiR/bbbz9l8ok42223nc10Ry+6MzJwDWHUC1niAgT02FJnGZmWcrvkwFOA0Uc6bWg3GWHGdYc4PEackRnvRFKmU/8wKslsp3oYbZAno5GkR8eARMehrpFgAj2I2dnxKlDa+8yiWtPLYdZ15hVhRIT82w7cs+iRxRcdVwJ6CnDzATdELaIDee6RFxPhIStAThgj+J8vt9xy1hghBoGXqOal8AM6ATAyCbgksJJ4ERQgXHkwVFB86GVfZpllpARFFFwiScOM+yQjk8y+To8sMSTIl7aUWCDkiXIEGCFKFbtkof0ki9auu+5qPvroIzsSQltKfaTzh046N5ks9RODhMxMGJMiWmBkTJo0yY5w8SElM508pNSmTuLqSt0j/TYuk7xP6fhRZ0BmUZatXgyNKukmCeTChSC1p5xevN1228326LENE3UR/EV6X/UaRAsaW0Y6GLXCNcvJkapNrx4TqrGOxvbhhx+2vey448kvPbogO16SzDNCTAgBtChA9MCiBJFWlHVk1ELmIpo4OT733HN28jxcP2hLMTTwWSfwGeVIRBOMyTfeeMOccsopNoUvnTkYHIxCn3766fadSOeAkoFEFzromBsGV1dczjH86SBgRARXWDf3Fu9RtsVjhEQvMkYyj7pfejHkR8ftA6WHFyTBllRQYgtmz55tHnvsMZteFD9L0vreeuutMkYiCNnQaDyZERg54huLnzqGJnOOEOyMUclszxglvEBljEQbetN5aRJPwMuR+uiyodHTR5nMacR2iejC/D70xOJi5xJa4gJEpwBzOlF3x44da9eL6EF7SocAIyBkP6MTADBAcKnj/XnhhRcqMUhEIekAHXXMHUJ7ifFB591aa61lU2kjOwxO5EenHe1qaWmpjJElBSMkoncSGBzJnXbaKVldXZ186aWXkoFCm9x8882T++67bzJQdJIzZ85MBhXVfkR0CRSa5CabbJIcN25c8j//+U9y+eWXT+61117Ja665JhkotMmgwQ23FD5w4403JjfYYIPkww8/PK/u1dTUJHfcccfkOuusk1xppZWSgaJr14toc8455yRffPHF5HvvvZcMlKDkJ598kmxpaUm++uqrVratra1qXyOIk4n7Rk6vvPJKct11101OmTLFrgPW19XVhUsiSjQ3NycPOOCA5Omnn27lBMhqzTXXTL7zzjtWtk899ZStlx9//LHqYQTQPCS9GOYP+fDDD222Hnxk8Z1k5mdcfOgJIt6AXnfFi0Qbeltxv8MnncwgDEXjBkKwLFmYkC358EW0Cdpj6y7A3BPUPwKfCaCl144Rrd/97nd2/h8Ca+m1VXxB9GH0AzdJ5gBi5Jn2FHfYwOi07rD0yqp9jR6MMtOOEu9DfCWeAVtuuaVtawlaJ/sZc48gO7lrRQ/cr6hbfIi9IyaWdpU5uUixja5DUhdi70jSg7cIabZVF5cw7XaJ6G3QG+B6DQJl9me9A6w/6qijkp9++ql6DSIOsuLTmZxYf+yxxyZff/31cI2IMv/85z+TV155pZXb3Llzk3vuuWfy5JNPtssiulD33n33XTuK1RHkuOmmmyZHjx5t29nvvvsuudVWWyWff/75cAsRNahvZ599dvLxxx+3sv3ss89srzq96fzGiNcee+wRbi2ixvfff5888sgj57WbvP+Q31133ZXcdtttNRoSYRTU3stA3KQyZOZRsmrRA0vPDz0J/EaQ3nXXXWdHR0j5y3oRPZAVvq9kXEJWzCdCli168vgN39lrrrnG9t6RUlS96dGHzEvIitGPgw46yI564aeOPzNpRsm6JKIJo5P/+9//bJIBel1TIebnhhtusDFcyHD77be3I5ZqW6MHbSlz/QA967SbtKcEROM9QEwQMQa8O0n7K6IH7SbtKO9AYikZHQmMS9uW7r///jZ7lt6HESWobKIX8dVXX9keuhdeeMH6MeOT/uGHH9rfiDUghoReWXrzRHQZM2aMlRU+6bW1tclAibVxQEBv7a9//evkeeedZ/1oRXQhnoAP0GtH715gXCavvfbaeSMl++yzj+2dFdGFenbEEUfMi8nrSKDoWvmqZzb6fPDBBzb2jnbU9bIjU2IsaXdF9EF/oT4ecsgh83QZYoDWXnvt5LPPPjtPriJaKIakl4E/7LbbbmtThZJtiTkM6LEj3R2zBNPTTi+CskxEm0BBtTEiTHaITzPpQ8mXzwgXGUW22WYbG3OgXthoExiRdpJK6h2xIvio03tOelEm6WJ+CuY+wP9ZvXrRBdnQrpJRi5Tav/71r+eNaDF7N2maGYkmZbOIBoxy0D52jBsYPHiwbUNJFUuWSVLF4lFAfB4jl8o0GX2QK+3o22+/be6++26bXYs5uYj7ueCCC2yZSRFFtNAbrhcRGKBWyUHpId0dM5ESuMfLlOFMKjHBelJiow+ydJNVMrkTKX4BtwICo3mhKkAveqAEzZgxw8ycOdO6FpBym4m6mNMAdxFkxmSkuG3xIn3nnXfs/BWqk9GhtbU1LBlb15AnySOQHTPmo+iQVII5gEjrS5KQvfbay7r6iGiA4bjDDjtYt57OIOEAhiXy3GKLLcx7771n3WMJhBbRhTaUOkdqbTpVeR/SfqLfMHfMzjvvbK666irbwSOih0ZIYg6Ka1tbm31Z8sH4oEfdvTRRijBOMFI23XRT9cJGFORYU1NjFVp66Ohp5WVJD96pp55q19Pzw7KyhUQP6iBzwlDXmOn53//+t3n++efNqquuamd4Jq6LGZ+ZVwQDhUwwl19+ue3JU52MDhiSyJA4EQwMlFbmbmLkedy4cXZkhJFJsqSh+DACxugI6yTH6IBhQZ2kjvHe68zQYGSETjt62Y855hiz7LLLql2NKLwfMUKIDyFDGpMffvvtt7Y+EifLvE4YlBtvvLGVKaPRInqohYwxVFLcBXDloWeAhpUJDpmB/fXXX7cBmMz+zFD0SSedpF7YiIIcP/vsM7PTTjvZYWiCLZdaailrkHzyySfm8MMPt2529NS6ES8RHZwxgoJKJ8A999xjJ+nCeGTCNXrXCVrnJYmMcaGknuJeoDoZLQhkRp506owfP9588cUXdsLY66+/3rz44os2hTrQz0dadSYkxeVOcowWdOocfPDBdpSE9yHvwI5gfDBScvHFF9u2lnTNIprU1dXZdOi77LKLOfLII+3IJYkI3Cz65557ru1ESB3dFNFDWbZiDJWSzEu8FBmuRCGi0u655552Fmh6EgYMGGCVH/k2RxeqKL2svDhRWplhlvkoUG4xQugJqqioMCuvvLJy4kcMlFd664j5IRMTSqqDOkkmO1wMmO8ApZVMTLgaYHDKsIwmjEbSlpJVix5Y6iHKK6Mnp5xyio1BwMCkLrpRaRFNcHvFNZJRSzKh8T7sCO0vo5mMiCFvEQ2c6sr39OnT7ajzvvvuaw477DDbwbr88stbXYfRSeooRqhGuKKNWsoYQgWdPXu27fUpKCiwQ5ZUShRZGl168ogVQcFlCFPGSDRBjlOnTrWGI4otgc8kIyCdLz2zpGcmEcFmm21mJ1yTMRI9kOHEiRNt6lcMkFSQ1x/+8Ac7+oVPO4YIvs305EmJjRbE3lVVVVkF9plnnjFHHXWUdad78803bacAcmbEi5gu3O9Yj4EpOUYP5IhLHSMeyI06SEICRid//PHHcKufQIllZFrGSHSgM+D999+3qdKRDW0pSQhwkcQliyQvGJckkmDyZ/QhGSPRRzEkMQTXLHrUGbLEr5JhZwK7Bg4caH3U6ZUdNmyYrbgiuhDQTCP76quvWgOETCE0shiZvBxxFUHhIdOWiCbIh8B1jBFcP+gIoB46UFoZHUEZomddRBOMEOQ3ZswYa1wSp0VHAOVbbrnFypgedFy66Pyhd1bGSLTA+KCTjncjnTzMTcG7EjnyXqRdJaYEBVcxBtEGORIvgmHCaIjLQjh27FhbV+m8Q760r7imK6GEH6jFjBE0uFOmTLE+6uecc465//77bQYmDBB6hQCFiB520v2KaMEoCLhedWJF6C+48847bY8sDa/r1SMpAaNdjHKJ6IIhgt/yoYceanvtTjjhBOti58BdCyOT3nYRXehppQ19+eWXrSxx/+Bz3HHH2Y4dsvgQCwTl5eWKGYkoN910k9l9991t3B3yJAYPA4XkLrg2E4unkeboQycciQhw1cKQdDDShXGJqzqTWOLCpY4Bf9AIiefcdttttkLiukMWJmJEUIJIA0vDiuHBjN4E0ZJNBPcsttULM1qQAYQUlCg3GBz4on/wwQfW9zU3N9cqrMiTmWcZHcE9BFmqsY02BLMjW9L44h7pstqttdZa1oWAuBJkTZpmEV3oLKCXlblF6ChAnihEuNkhVzqChg4dqtn0Iw4eA4xgofZgfBDYTsAznQQos2S9w9AU0Qb9Bd2GdpR3JKPLyy23nF1PpyuptpEvsZXCH2SQeAyNK0ork+HRY84LE8WVIFr80AmgpXGlZxafZrZ3ipCIBhgfZOvBNx05YiziLoDR8cILL1hFh6QDyHG11VazDS4Gpka4og2GB64Dr732mv3GN52JLHElIC6IdLFPP/20zaiFS6XqZDQhMQgdBQSyo+gwUSW96g8++KCVJ/EjBEWTFhZjRHKMHoxQYlDSdmJwEHvA+5AMd7gyI0s8CVw7K6IL70piJz/66CM7SoI8GREh5T3zN+HChXeIJrD0ExkknoJ7AEPNRxxxhE0PyhA0yg7Zl/iMHj3a9hjQ80ovOgosCi297SI6YCTSw4NSirFIjx0xBsgKmTEChgKLgYKyg8FJLIlGuKINxgYGJSkokS2GCYoQMuWD/BixxOVOsowmdBYQU+DmjCGAllgRYg5QjEgSQoIQ5EsHkIyRaIH8aDtxp8PooBeduUXo/MFjgPYW+ZGwgHTNSu4SbZAn6bYxHp3MSOZCRwE6DzFeGJ98E8sl/EMGiYfwYiQzCB+MENx3mEyNmAKUVXoNqLSkniS4ElcCDBH5xkYL3ATwR8eYpLeVFyKKDT08jG7RA4TyeuWVV9qeWBpe5CgFNvrQi8fcP/Te0WGA7FBgmTwPdx962ploTS530YQedZJGkB4dFztGSUgNS2wXdRU3LTp8SEaALGWMRJOzzz7btqX0nl9xxRWmf//+Vl6MYKK4YrBcdtlldqRERBfqHaNa1EPi8OgYoO2knUUH4l25zz772FgvJSTwF70NPYNAPAKc6QEgGwgvQj70rOMDSwwJcxmQHhbf2P/+97/zgqVFdGDOAtw8cNNCaXUKDW4DTMJFrx6zddOrx6Rrwh/oyaPHDlctykDPLB0F9Kzj4sN6KbHRBRctOn7oHMAwIXiWbGhkvCPuB1cuDBM6fCTHaEAMpQNDg5EtJsxjlJJOHwwQJsp77rnnbGfevffea2688UbboSeiDR2uyK++vn6e+90BBxxgg9YJYMeNUviPRkg8gpR2NKS4CBA7Qm5tXHmonPQWMARNzw8jJbwsUYAwWtQLGy3IlHXIIYfYDy9RMvcwskXPDsoNvXkotChDxAbR+4M8NTISXUgkwdwGpIEllouJDW+++WY7skWKbdJUkoaSTGkotARdysc5ujCaTJ3EEPnXv/5lRynJhoZBSdtL8gnqqYgGxNode+yxtt1kFKS6utrKjHcko1gkfqFTgHpJ1klGJ9lWXgPRBuMDFztkihvzI488YmO1kCPvQyYDRra4MpeVlYX/JXxFM7V7xJlnnmm22GIL6y6AokP8CMoqPeouNoSeOxQhJlrDRUTGSPQgoJlREYwMenxOPfVUG/RMSko3UzANMTnymeEbuZPNR0QTmlBcB4gZwTBBUcXoQEkiKxpzyGBsEitEjzrZX0hJSXpYER2QIzIkYJZ5RhitpPPgz3/+s029TV2l/+7000+3HQVqW6MB8VmkuMdzANcrl7yF+sc8TnTM0RFAG0q7+vHHH1sFl44CEV0Y5UK3Yc4YEvMgX/QaZInuwyzsqoPxQgaJJyAmegroVaUXnWVelgxHMxM7Ae6ut4ff3LCmiB7IBhk6Vw/c8FBWkRszPZNpy8E6uYREi1SZ0AGAMcnLEqWVOCCUVmTKCBey5MXKeowVXERwt8QPWnKNDtRJXCMxSBj9wAUEf/TDDjvMTqzGJKWAe8hee+0l2UUE6hlxeCRxwcCgrmFAkkFrm222sUYJ70aMS1xkFV/gB7gyo9vghk7gOp12uKVT9+gwYJSLD6MmIj7IvPQEXoAoNe5FyDdBlShBpIGlJwF3LfebjJHoQq9OqkKDiw+jWRiUuHHhJuJI3U4seVBccQXBEAFceFBaCVzHFx1jg0BaEknQk06vOq4i9M6SZAK3AowXyTU6YGASV4BbHXEHjGoxWkkGJtpXlCEMSWZkp1dWsosOZFXCPQswRHhHkoSAD8Yl9ZARadwpmT9G+MFnn31mkw/g2vrkk0/amdh32GEH2/5ioJD9jmQFIl4ohsQDeGHSoBKER5YeFBz8JnkxogARwM7LEoWIiiuiCXKk55Ue13fffde69ji3HVzuyKj13nvv2UBMGl0pPtEDGRLYzMsQo58REAxMXprUQ5IQIEt6ZIk1wBAhcxrrGMkkLkHud9ECFx/SiZJKfb/99rNyxXAk/TZzOu2xxx5WzkyEqDoZDRhtfOihh6zLskudzgzs9KjTOUCWyX/84x823oBedOod2yqbVrShgwe3LAxNkvNQpqMAF1iMTb5xe2U0TDF48UMjJB5AxSRgjwpJ1ix67FwPLS9IKiizQW+++eZ2nYgmpC4k2wuJBmhMkSkuBQ43UkKvkBSfaILxcfLJJ9uUzbhdAUoscT7MuE5mJqCjgFFLfJ8BebpOBBEtMDzo0GE0i4xaDtdZgBEqogX1iBg7UjGjvDKyjIGCQstvxJCQlYkPMSYYKcSNiGjDyBaJXkg6wAiXm+iQ9+U999xj40k0+3p80QhJxCEA77HHHjO77LKLVVTJGEIlve+++2z+bRQfp+y4wHYRPQhsxh0EY4TJ8MiOhqsB7iHMUeFelvSeqwc9uuAygDFCUgLiCkgFS5IJemGph/TgIU+SEyBHGSB+wOgHSSZw76Gu4sNOemZ81ultlxyjBR0DjFphcKDCMPrIyBbKKyOV1D8MTdx+GLVUBqZoQzY03o/UPeJ/6AzAJR1XSnQgJiYdM2aMdYdl1EvEEwW1Rxx6gOh5xWeSRpcXIzm56X3FxYBATCmw0Ydh51133dUalMwxArgdkB0GP3UaY/XgRR/c6ch9j9wwTnALIaidHnYghTP1kdm8hX8w8RrzG+A+SayPc8kTSx4mxiNOctNNN7XvQeofHTq4vlInUWWefvppmxgEY1Jpmf2BdyGeH3TyMKs+70LkSdIC2le8Q8hsx7eILxohiTi4Y9F7R88dcQXOR51GGeWInlm9MKOLs/dxxyJXOrMFE2iJXOnRc3nzyaeuRATRB2Pj/ffft37r9MQyOkKsCLEGlOlNHzVqVLi18A3aWuSIewijzqSM1ehINMAdEndJYijpPee9x3wUzLuFayTyIkMayUEwSBiNVmedH/DuoxOHudbeeust6/2B8cGHkS7iYyXL+KMRkoiBOOilI5MPvQbEGdAz8PDDD9vML/Sk4w/rttXLMpogG9Iyk44S16yDDjrIun/g40zMAT17BFqK6IMs+TjDH590UlIyGkIPOr229MpuuOGGdhRT+A9t8O9//3ubMnb77bcP14olCXWQpC777LOPddViFAsuuOACq9Ay5wgwckKKfJRZvR/9ArnhETJ37lxzzTXXKE1zL0MjJBGDHgKGLulppaeHxpZeOzKI0CDjQ4kiix+lGtvowozdpH0l7oeRLWINcNsidSEBe7w8XVYmES0IkqUOotggq9dff92mFMVVkt5Z1hFQS/2kBx1liBFLemdVJ+MBbS4yJR5II9DRgLrlYgtQWmk7GWmm3l111VVm/fXXn/depG6qLvoHoyBM/vzhhx/ayZ/Rg0TvQSMkSxh6z11gOuC3jKLKJECIBgPlD3/4g40loTGmVxaDRL6U0YL0hKRcdnLEcCSQkgA9YLSLYHZGRnDTIrsWL0+lLowert7RW+fSvzI3DLE/uBMwEdvvfvc7K2Pif4QQmcGpK4yUMCcMKdQZKcGDgFgD2lsZIv5DpxAdQhiWovegrp8lCLPKYmzQc+4gna+b6ImeOeYwwLcSv3V6YvGVlTESLWbOnGmDm5lB1kEPK2l+aVRdjx09P8xXwTK9ezJGognyodcVn3RGuJ566inrJkkCCWJF6Lkj5e9XX31ly0KIxYczNP70pz/ZbzIxMQ/QJZdcYkcyaVMZzWKOJzp+hP+g68gY6X1ohGQJgxsIhgkB6kzcRA8syg4jIvTMApN24TdLqlH1/kQTenR4UZKicP/997fy3GabbWwaSpdxCTlut912ysAUcWgSUXaYRG3HHXe0I1sEzjK3gfudekucAe5bqpNCLB6oaxgiO++8s/UcIP09HXV0EuAxwEgmcZakxieWS3EjQviLYkiWIDS2jIjQA4RPLA0skxvSM8tEa0yI+MQTT1i/SgKilWUiWjD64WCUixclyQjIwMQ8I/g3n3vuuXZmb9JR4v5z4IEHyic9YlAPnRJDmdFIFJzjjjvOxoyQAQ2lh1ES55ZHpjsyv0j5EaLnoFOHd57LHonRT4cdI5XE5JEQhDlGcJdcZ511bH3EdYvedMWNCOE3GiHJMNxuendoVIkdOe2002yKSWIQDjvsMKvQ0tCi1DIpEGkNmbCLIUwRHZAjMwMTZ0BgM9l4mC0fo5HsPPTokVkLo+Xrr7+2LlzDhg2TMRJBmNMH10nctJhfhEQSRx99tJUfCg6yJkkBIyW4bRHoLIToedzcWiSRwMCgvaQNJV06ZToJMFrIckcHARMECyHigUZIMgwKDqlfSRNKzzkjI6T1pXFlngpGRgh2xj2LD5M7SYmNHq4nDuX1xRdftCMhxPswusXswNdee60NhCafOrJldES9d9EDY4M4EGZYJ3vPJptsYuX2yCOP2HkMmD8GuWFQkoyAkTBGTIQQPQ9xdXTAMRry7bffWjct3n902tGJR2cdHXrEkNCRoHhKIeKDNN0lAIoNihDKTaqSyoRcl156qbnwwgvNmDFjwrUiqjAHBYpqfX29HQVBpoBie9ttt1lD5dlnn7XrRDSh/pFSm9m5TzrpJOsiQqAsnQGMXhIr4rajfrKtEKLnoN1kZIQ4POJAGAFh/iZct8hih1szHXdMdkhMF4kljjjiCNvJI4SID3LZyjDcbhreWbNmmc8++8xO8EQQO72xNMYoQLhrMWqCS5eILsiypqbGjnjxAt12223NIYccYl+gn3/+uc2kRZyBevGiCzLEePzhhx/sRJZkRiM1M3PH0DFAHBejJ8SSCCF6nqqqKhu4TicASUGIFyF4HTdmXGExQjBACGCnPjI3heZvEiJ+yCDJENxmXEGIO8Ali2xLGByvvPKKHZ52oyI0yEzyJKIJcsQAYRZZ4kXwZR46dKhVZIkB2nXXXW2GrU8//dRmZlLsT7R55513bMpmel2pj/TC3nzzzfaDEfKXv/zFzsBOljshRM/BXCIkh8C4oEOArIQErfM+dO0mIyeMXhK4TvZCJXYRIr7IZStDfPDBB+aYY44xhYWF5s0337QTH9LbQ/504hDopcWXHeVIRBfkyCzrzArMy5EXKJNVYpRgSGKssJ4gTBkj0Ye5CxiNpF7iloU8t9xyS5sNjXllSP+LMiSE6FkYkSS9PfWOAHYC2Xk38i50GQxxy8KL4IUXXrAjKUKI+KIRkgzQ0NBgs/bQg07DSw/QqFGjzPfff2970VGIUmNJRDQhoxYz6TNTN3L8+9//bnv18HNmxITsS5KjXzAqSeYeRkRIIAEoSYxUskz2LSFEz4PqQXtJfAjvRrLckc2O9pVlvAgYacY4IY26ECLeyCBZjHBr6YEl3Su9QUyiRi8QMSPkTyeNKJOvkeoXo0REE+T4xhtv2FgQRj9w5WG0i5ESssDg34y/8+WXX66UsJ6BsoMx+cwzz1g/djKi/etf/zIkH8SVRBnuhFh80LaSavvGG2+0ngK0p8RWkliCebmI0cOdmfelECLe6G27GGGI2cWG4OJDnAGZmZjxGd9Z0vz+9re/nTcju4gmJCBgJIuRLgIvca3DOMH4IBEB8iP4kpn2hV9gcDDqhVsWbnYYmdRJGSNCLD6Is6Mdpf2k7pEMhMQgeA0wr9O9995r5wEipkvGiBC9A42QLCYIlqWnB9cegvIYmia+gKFoRkbIsQ7EjLCNiCb4NDMnBS9F4n6Q48yZM+3LkvTNc+fOtZm06FGXHP0Gg5MMeC6eRAjR80yZMsUaH3xj+PMOZGTygQcesKOVxG0x34gQonehLsDFBNlBcMVCeXU2H4HPZO1hBnZGSGSMRB8m48K4xPUOZRUwQJhNmFESUlDKGIkHyBMXShkjQiwecMFibqYtttjCumrhMYAbMxko99hjD3P44Ydb963m5ubwP4QQvQWNkPQg3EqUGb750LvODN7EjGy99dbzFB381ilL8YkmTn7IiZgRRrMwJMmIRnICGR9CCLFg/ve//9nRD5K4YIycfPLJtm1llnVi8XDZYlTk9ddft1kKGTHBRZbU+Ho/CtG7yDqL7l2xyNDIkledFIX4vdLDgwLLqAgTq40cOdI2ys4QUWMbTZAjCQiYpZueOtzsNthgA/Ob3/zGvjj5HR9nxRcIIUTX0KHz4IMPWo+ATTbZxI4+FhQUmHvuucfG3/FOpMOHQHZmZ3/11VftyAnzAen9KETvQwZJD8GcImTp2XfffW1Q7HnnnWcbXOY0WG655axf7DLLLGMzbonoMmHCBJt2klSwu+++u7n22mtN//79zcYbb2wTExD4jLvdyiuvHP6HEEKIjmBUkMCFZB9k0Fp++eXtMt+MkNBZR6pfjBLaVxKGkFlLCNE7kUHSTcaOHWsnbXI9OfjDEuS8ww472LShBEEzhwGxJBgkfGhwaXxFdGC+CeTo3LCYg4JYAhIPMCKy2mqr2QwwGCq8QHlxEnCpSQ+FEGL+0E4yMsIICJkKmU+E9yAdcxdddJE1TmhXeS+WlJSE/yWE6I3I76Qb4LaDHYfhQRkYniaVIYHqDDkTN0LWnrPPPttOqLfeeuuZvLw8u62IDrgP4NdcXV1tl8mwxGjXGWecYUdGiBlBrvTozZ492456MUIihBBiwdDZw4jzzjvvbN+LuDbjOUAby9xNLS0t4ZZCiN6MDJJuwKgIMQZ33XWXueWWW6xRQowBZRRbFFwMlDvuuMPOUUGPu4gmyIr5Yuitw/Ag7oeML+TIZ2SEdbfddpt1LcBAEUIIkR4YJb///e9tLAlzNuFhQPnOO+9UkhAhhEVZthYB8qjTg04GLeJH3n33XTvDLIprfX297U0/55xz5Bcbccj+8te//tUalvg6k+WF5cmTJ1tXAtwMTjnlFFNaWhr+hxBCiHQh2cvtt99u3nrrLXPTTTcpeF0IMQ8ZJN2AVIV88I396quv7GSHf/zjH+0HJRbDhJSGZA9RrEF0YTSLiQ2Za4RvUvuOGDHCGh8YIqT7xQjB31kvTiGEmD900r3xxhumtrbWxt8xT1PHdyBGiXt/CiGEQwZJGnCrCM7D95UJDxlypicdtx5GSLbddls7sZOU12iDHD/44APzf//3f9a1rqKiwmZBY5Iu5In8LrzwQhsLJIQQYsFghBxzzDHmV7/6lZ17hPgQ2lHcYIUQYkEohiQN6FEn1uCoo44y//znP81DDz1kszLhosVcI2TaevHFF8OtRVQhyQCTcCEzfJiJGUFujIaQhIDeu6effjrcWgghxIJgZIRMk7wf6aQj0+SKK65o21P1ewohFoRGSNLgP//5j/n+++9tz/ro0aPtbLLHH3+8VXBJWYjbj9IXRh9c6h577DGbOYug9uHDh9tYIAwTRkmoEnzIuCWEEGL+0F4ykSzur3TcMUO7G2U+99xzzcEHH2zdmIUQois0QrIQOJsNBRUfWYwRjA6UWfxh9957b5sqFtcfGSPRhTTMzkXrhx9+sDEjgwcPNn/+85+tHDE0P/nkEzubsIwRIYSYP2QjfOqpp2xikI022shOJIvnwJlnnmnbUTp+vv76ayUEEUIsEBkk8wFDBMWVCQ7Jnb7VVluZTz/91I6EYIwkEglz6623mlGjRpmllloq/C8RNZDjmDFjzC677GJeeeUVO2M+cSLIEvcCfudFSpDlmmuuGf6XEEKIrmD+EFL4fvbZZ7Y9xT1r8803t5PIPvHEE+bSSy811113nbn44osVjyeEWCBy2ZoPGCGnn366HQFhIifmEyFdIXEkuGsxQR6zfDMZonKpRxcynzEawrwiJCLAkBw/frx12SI9M6MhuG0xt4wmPRRCiAVz3nnn2VEQJjt0iVyIF3nuuefse5LYyj333FOuWkKIhUIGSRdwW4499libupcREpRYtx7XH2btxkDBRUvGSLTBqOTlyGzBqRnQcNNClqzjxaoUzUIIsWBaW1vN+uuvb5OD8O2gTaUdpU1NbWuFEGJByGWrCzA8iBfBjccZI8C6adOm2V4fRklkjEQb5EiQJS/QVBghefPNN61BiTuBjBEhhFg4aC/prKMNdRCfR2A7IyQyRoQQ6SKDJAWU16qqKvPyyy9bIwQ3rbvuussqtO73O+64w3z00Ue2LKIJspk6dapNzYxLFhleHn74YTNx4kT7Gx/S/eKSJ4QQYsHQbj7//PM28Qflc845x2aexAihnX3ppZfMs88+a37zm9+E/yGEEAuPXLZSoKElAA9DZP/997eNLpMg/vjjj2bjjTe2veoMSdMQ4+IjognB6qSc3G233cz2229v8vLybPKB22+/3coRo5O4EeSoES4hhJg/JHLB5ZUR5UmTJtkZ2E899VTb1tKu0gE0bNgwc9hhh9n5R4QQIl1kkIQwkdPvf/97m3Vpiy22mDfkjKvP22+/bXt+UGY322wzO9eIiCYEVe677752VARjxMmRx3zOnDnWxYCMaGSESXXFE0II8UtoOx9//HHzzTffzAtgJ0EIHT1XXHGF7dRhHdvJVUsI0V2kkYXQA0SgOgF6qY0q+dXXWWcdc9ZZZ9mRExkj0QbXAXLjY3SkypFJD3lx7rDDDmbllVeWMSKEEAsBLsx///vf7QgIbSofMmzhLXD22Wfbb5AxIoRYFKSVhRC8To8PPUEE5wHfV155pZ2LRPgBchwxYoR54IEH5gWyI0fy4TNBlxBCiIVn0003NX/605+siyuuWTBo0CBzww032LaV+UiEEGJRyTqLrv9eCMPLZMx68cUXrZsP81AMHTrUGiD0+DQ2NlrfWEZNdt11V8UaRBTkyCz5Dz74oJ2Qa9lllzVrrbWWDVonJoh4ERIRIOO99tpLI1xCCLEAGFGmDWV0hIxa2267rZ2j6ZprrrFzObnsk7g3a+4mIURP0CtHSFBiUV4JXH/00UetPyyZQjbaaCM7u+wjjzxiY0noYb/gggsUwB5RnDFCIOWsWbPM1VdfbY455hjbe3fTTTdZF4LbbrvNGilMXsm8MUIIIbqGEY9TTjnFGiVM/Ets5QsvvGBHSTBAttlmG5v6HuT6KoToKXplUDu95ocffrj9kDWEzFpA0DrraGQxRlywnogmTGp45JFHWoMSWV1++eWmb9++tkcPn2depjzekqEQQiwcjDa/++671kWLtPevvfaabU8HDhxo34uMOPOuJDGIEEL0FL3SZYv5J3DhwTf2+OOPt4F55E4/7bTTrAJLELuMkehDZrTa2loruxNPPNGce+651p0Aw+SLL74wv/3tb+VqJ4QQCwFtKUlcnnrqKWt8jB071maXJP6Ojju8Bkj6wnuzX79+4X8JIUTP0CvHW8mTTs/6PffcY+MNVlttNduzTkpfDBU+IvqUlpba9L643REDtNxyy1n3OrJo0YPngtqFEEJ0DZ07dOoQM7LTTjvZkZFnnnnGuizj6oqRgmcBo85CCLE46LUOoAQ3FxcX29ESJnp6+umnzZprrmkbZSbNE/5AVi1GRPjce++9Vo7MRULgpRBCiK7BGLn//vvNkCFDbAIXJj3cc889zffff2/nbWJS2ZtvvtmOlOjdKIRYXPTqiRGZe4SJnT744APbq37yySebysrK8FfhC6SexO/5iSeeMCuttJI54ogj1JMnhBALAZ1yxE4yykwqX2LwmM8JY+Szzz4z5eXlZvPNN7e/y41ZCLG4iLVBwqXNnDnTDjVjaKCkdtWgsq0a22iCbMh//+OPP9oMWqRn5qWZiuQnhBALj5tDBG8BDI+jjz7axokwOqL06EKITBProHZceGhk33jjDTtRHjEGgwcP7lRxlTIbXT7//HObfIBUzaRnrqiosHFAqTKT/IQQYuEgTfpFF11k3bFwWSZ+csMNNzTXXnutNUYYaVabKoTIJLE2SJjYiblGjj32WBvsfNlll9n4AgLY1dhGH0Y9Jk6caJMPkAufPPjrrruunVMEo2TppZf+xUiJEEKInzNjxgw7gSEp7Una8pe//MUMGzbM7Lfffuaqq66yRskee+xhDRFS/DISTQeeEEJkitgFtaPEfvvtt+aSSy4xY8aMsSl8UVrJHHLQQQfZERNiRthORB83USUxPhiRvDDPP/98OwniY489Fm4lhBCiM9577z1z3HHH2VERYI6R6upqG2v36aefmuWXX97GkDQ3N9uAdgwUJpMVQohMErsRksbGRuvew/wTNLbM5E3u9Ly8PKvMEktCakOC9ES0wQAh5/1bb71lPvroI5vKl14+3O4Y6Xr++eetHDXaJYQQvwQjgxEP4kKIvSOecvLkyebjjz+22bWee+45c+GFF9oR57/+9a/2e+2117ZeBEIIkUliFdROzAhDz+PHjzd//OMfrbvPSSedZOcZYdJDFFfmpqCRJre6iB48jrNnzzZvv/22NSBJ6Yu7ARnQllpqKYP9jBzZDlkq+FIIIX4Jgeq0n7i4Tps2zQax48L861//2uy+++7W6GCkmUkOX3rpJfOvf/3LxugxCaIQQmSaWLlsMSJywgknzIsrwEeWRvbLL7+0bj6kMuQ3GSPRhRSUZHphskNc7Pgm7STBlox2Mat+Q0ODNUpkjAghxC+ZMmWKOffcc20iECYBZpQZr4FNNtnEZpu8/PLLrQsX78VzzjnHpvtle+bmEkKIJYH3Llv0lDMigpFBnMGoUaPMTTfdZLbeems7MR6uWhtssIFtkHH5oVEW0YEAS2dAkqJ57733NqNHjza/+c1vzDvvvGNnC0aG6623nn2ZMgpGXJDkKIQQncMEsf3797fZs5ififaUiQ7JOIkbLO5bW2211bzgdZKGsE7ur0KIJUUsXLaY3JBJnOj1Ib7g9ttvN9dcc4255ZZb5gVDi+hBXAj+yxiQ9Mzh10wAJi9MAi7psSstLTX77LOPNVJ22203GSJCCNEFbl4RErqccsopNiaEODtcmJkI+JhjjrGusHgSaNZ1IUSUiIXL1mGHHWbjRE488UTb404qwzPPPNMu4zsrognZXch6RtwPWV/I8HLggQfa7Fk777yzHRVhduDtttvOjnDFwHYWQojFwocffmjOOOMM65o8cuRI214Si7fiiiva33HVuvLKK60LMzGVuL4KIURU8NYg+eabb2xvOo0uc4ycfvrpdrI8gvYwQrbffnsbCE0PkYgWvCQZGaE3Dze6F154wRx88MHmhx9+sCMgjJbwcsU964477rApKJlDhgxbQgghfgnB6bW1tbaDhwB2jBPaWYLaGY3mXcn7kLS+jKJMnTo1/E8hhFjyeOuyhS8s4S/0+DAEDQxJ4+6DYXL33Xdr0ryIMn36dOsywOgHKSnJlkXQOvnxSULAy5Tg9ddff91OhHjeeedZ1y0hhBA/B2ODOMr/b+9eQKss3DiOP6alKZQ6pza1ckMh5lC00jVN0KXdtCk5FWNhZUuisnRmF90fzZASKTO1lkzF0Aluwzs43dy8rBUZKYmGF0zTeZu6eY/4/39PZyZ/8zJynvfg9wNjO++2cwYvnL3P+9yeffZZv8mj90tVCigg0Q2e5cuXe/mrJmh16tTJf0c/p/+PlDMDCIqIa2pX/KQ3UY0z1HhC/fkKQNSQp+8tWbLEew06duzoW2kRPKpd1uhJBY07d+70oEMN62q6VO+Pvk5NTfVGy379+jEVDQCuQpMJFXwo+xEfH29xcXG2ePFizzir7FV9lM2bN/dlwZ07d/ZMiv43EowACJKICUgUbOiCVRtnlR3R8ibd7VEgojdjXbSq90Cf9ZjsSDDpPKoU64033vCaZk3R0nQtNV4qMNG4yrlz5/rdPpXi8U8TAK5O/wOTk5P95pwW/2oKYa9evbzcVaWvKotVFYGCEvWWMNoXQBBFTECiMh5tktXdc6WjNVFLTdCPPfaY9xjowlYZE81UZz9FcCnAUL+Ppr1oo/7zzz/vu0Y0Yat6tK+CSd3pI8MFANemXpDc3Fz/H6mSV43yVSZEN3h0XDfy9N6qISIsPQQQVIHvIdGfp4vYU6dO+RIn1cLqmC5i1ei8aNEiH/WrN2P9HBexwaZzl5KSYnPmzPHSAdGISpVmqUxL55esCADcGE2TVACirPKBAwd8sezYsWN9sEtFRYU3tetGnfZyAUBQBf7qXRerr7zyin8cPHjQzp8/73fQBwwYYOnp6fbCCy/4Bm8dIxiJDOr50a4YnUtRYNKiRQtvcg94fAwAgaKGdo26b9y4sfeLqJLg7bfftry8PO8rUe8IwQiAoAvsFbwuTHXBqokhWuo0bdo0D0h0Z736onXo0KG+ME8ZEgSTzpXGML/33ns2evRo/+epvTHffvutZWZmeuOlzql6SBRgElQCwI3TkBCNUhdll9VPov68hQsX+gRD3lMBRIJAvVMVFxfb8ePH/WvNU1efgRqbk5KSrHXr1vbVV1/ZqlWrvFRLfSR6o9WbL3d/gksBh0b8KiuihkqVZWkhV05Ojg8gUD+J/mlqURf/OAGgZlQloDItlTHr/+fKlSutXbt23tROPyWASBGYHhL9GZq8pOBDmQ/1hCxYsMAXO61Zs8ZiYmL8586cOePlWnoT1gf9BsGlc6rllKpv1jlV8KF9IhkZGV5ip3OsDwUiBCMAUHN6n1Vp84svvugBiUbiq1xLJVwAECkC1dSuZU26o56dne3lPcqOaGpIQUGBff75536HXVS6pdGFTAwJFm0IVr1yWlqa74ERlWH16NHDR/2qtEABSlVVlY9m1lJLtq8DwL+jf+OVlZXe1K6bdyrZAoBIEpjb0npD1V3z2NhY30uhEp769et7KlpTmYYMGeITQ0Q9IwQjwaNN68pmvf766z5oQNmrp556yjMjOl86pyrTUrmWzrO2CAMA/h291yr7rH0jBCMAIlFg9pDs27fPx/r27t3bevbsaUVFRV4LqxIuLUBUn0FhYaHfbae8J5iioqJs06ZN3qCu5YbqG9H5ktLSUs+gaJP+yZMnPVOigBMAAAC3t8CUbKmkR9OX1LSuu+n6s5QdUdZESxD1WegZCZbqHhDROVNQKSq3y8/P9wlacXFxXuNcUlLiwaUWdhFUAgAAQMJ6VagLWC08vHjxojfiicq1RIHHlClT/OsZM2b4Z4KRYNE4X03QUi+IMlyi/hFlQ7SBXY3s6gX66aefvJRA/SRdu3YlGAEAAMAlYS3ZUjAyaNAgb1jfvHmzHTp0yJfjRUdH+/dV0qPtsw8//PClDAmCQcHk+vXrLSsry4cRaCSzzqfOlUqyzp496wFJeXm5ffnll9arVy9qmwEAAHCFsJZs6aWPHDnigYguXGfPnu0XrWp2rr64ffPNN2l+Dij19Wj5liahjRw50nfHbNiwwfeMaJJWbm6un2NNSUtMTGQMJQAAAK5wywMSvZx2iejiVX0GGt+rUiwdV0DSpEkTGzx48KVjlGkFnwIPLatUaV18fLwPI1A518svv8z5AwAAwDXd0pItBRg///yzT1jaunWr31lv3ry5j4DVhavuquu4JjPpMRezkUFbgRVcfvzxx94roklpXbp04fwBAADgumq9u/jyBIx6DTQx65133rHhw4f7Vtlx48ZZWVmZT2tSY7t6D7iQjSz16tWzYcOG+f6Rd99915vYLz/vAAAAwNXUaoZEGQ/to9DWbjWlnzhxwvsOunXrZpmZmb4wr3379h6UaGeFyn00hUnL8xB5dC517rQcUbtIGEQAAACA66m1HhI97VtvvWWrV6+2gQMH+pbu6n4RZUkaNmxoI0aMsD179vjnhIQEP47Ip3NPlgsAAAA3otZKtnRB+tprr1mHDh1s165d3l+gki1RlkR7Ky5cuOAN0f3797dPPvnEv4fIRzACAACAG3XTA5LLEy5qcG7ZsqVNnjzZ9u7da+PHj/dxvgpUdu/ebcnJybZt2zYfGXvXXXeFfgsAAADA7eKmlmypZ2TatGleoqV+EN0pX7ZsmeXk5NikSZMsIyPDJzJNnDjRR/9q90irVq2sUaNGoWcAAAAAcDu5aQGJnub999+3vLw8i4qKsqSkJEtNTfWAIyUlxTd5a7xvenq6tW3b1ntKCEQAAACA29tNK9lSNkTTsvr06WMxMTEekGRnZ9vo0aPt0Ucftfz8fLvnnnu8V0QjfvUBAAAA4PZ206dsHT161KdrKUvy0Ucf+aLDrKwsb27XQkQAAAAAqFYrY3/VuK6SLH3WKF+N+9XL0LgOAAAA4HK1MvZXpVkTJkzw8b7au3ju3DmCEQAAAABXqLU9JNHR0TZ79mzfPTJ16tTQUQAAAAD4W61taq92/PhxL9kiQwIAAADg/9V6QAIAAAAAV1NrJVsAAAAAcD0EJAAAAADChoAEAAAAQNgQkAAAAAAIGwISAEBY/fjjj7ZgwQKrrKwMHTE7cuSIHT58OPTI7OzZs7Zr167Qo39WVFRkX3/9tS/iXb9+vY+erym97u7du0OPAAC3AgEJACBstEB35syZlpmZaVu2bAkdNVu1apXl5+eHHpnt3bvXJk6cGHr0zxo3bmwxMTH+9e+//26//PKLf10Ty5cvtylTpoQeAQBuhbr/0Sp1AADCQFmRefPm2fDhwz2A6Nmzp+3bt8/mzp3rQcjBgwetbt26tmzZMvv+++/t3LlzfvyBBx6wnJwca9iwoa1cudIqKirs3nvvtQsXLtiDDz5o27Zts/379/serNWrV1tVVZUfl507d9qvv/5qrVu39sd6Pr22fl+vq++fOXPGsyXt2rWzEydO+Gts2LDBjh07Zm3atPG/6dSpUx44KRuzfft2f62mTZv6cwIAbhwZEgBA2OTm5lrnzp1t8ODBVlxc7McUZDRr1syioqIsLi7OmjRp4pkPHddjBRIKBqZPn24ZGRm+eLdevXqeYVHgUk2lYAsXLrQWLVrYhx9+aHl5eX5869atVlhY6F+LApC1a9fanXfe6a/VqFEjf52WLVt6+Vd6erp99913Hmx89tln9umnn/rxWbNm2ZIlS/znFMDo9QAANUdAAgAIC/WFqM+jR48eHgQocFAmQsHIQw89ZO3bt7e+ffta27ZtrWvXrn5cjxMTE0PPYDZq1CgPZrp37x468reLFy/a1KlTLSUlxQOS8ePH2+nTp0PfvdLdd9/tgUh0dLS/jgKlpUuX2vnz5+2ll17yxyrn2rx5s2d2lIEZOnSoPfnkkx60DBo0KPRMAICaICABAIRFWVmZl0A98sgjnuFQYKKsx59//hn6ieuLj48PfXWlLl26eFZFFNyobEuvVxPKuvzwww+WnJxsjz/+uD3zzDPebK9gJy0tzcaOHWudOnWyMWPG1Pi5AQB/ISABAITFunXrPFBQ2dWrr77qAcqBAwdsx44dVqdOndBPXdsdd1z939iePXu8tEoULOhn1efRoEED7zWpVl5eHvrKrnhdlWP16dPH+0x+++03/9DfqXIyBVIKWFR2plKvCRMmXHo9AMCNIyABANxyyoJs2rTJ5s+fb998841/zJkzx8uxlJFQeZYa2lUupUlc6hNRUKEyr8uDiWtRo3lBQYE/x6JFi+zpp5/2PhBlNFR2pfItlV198cUXod/4a1LX0aNHvSdEWRCVg6nhfePGjf48yrKUlJT436CeFx1TSdn9999vf/zxR+hZAAA1wZQtAMAtp6zEoUOHvATqcrqw14Ss5557zkpLS23FihUejHTo0MGDBE3WUgZF2QntJXniiSesfv36/rsKJJThUKmWgpfY2Fj/rN+577777IMPPvDGdfWrKJORnZ3tWZTU1FQ/lpCQ4A3zClI0/lejg5OSkqxbt27eS6K/RRO1FNSox0VTvxRQrVmzxoObkSNHeuYEAFAzdf73pkx+GQAAAEBYULIFAAAAIGwISAAAAACEDQEJAAAAgLAhIAEAAAAQNgQkAAAAAMKGgAQAAABA2BCQAAAAAAgbAhIAAAAAYWL2X6Qq9a4GkVtKAAAAAElFTkSuQmCC;" parent="1" vertex="1">
          <mxGeometry x="266.38" y="250.16000000000003" width="399.25" height="262.69" as="geometry" />
        </mxCell>
      </root>
    </mxGraphModel>
  </diagram>
</mxfile>
